<svg width="24" height="24" viewBox="0 0 24 24" fill="none" xmlns="http://www.w3.org/2000/svg">
<path d="M23.9524 11.8733C23.4842 11.8733 23.0396 11.8733 22.5321 11.8733C22.5321 11.6399 22.5321 11.4507 22.5321 11.2656C22.5321 9.36587 22.536 7.46615 22.5321 5.56241C22.5321 4.7011 22.5557 3.83576 22.5006 2.97848C22.4061 1.58992 21.4422 0.422717 20.1242 0.112806C19.6127 -0.00793823 19.0698 0.000111414 18.5425 0.000111414C17.0711 0.00413623 15.9183 0.885572 15.4343 2.31036C15.3714 2.4955 15.1747 2.68467 14.9937 2.77321C14.2422 3.13947 13.6796 3.70295 13.5301 4.52803C13.3924 5.28067 13.4239 6.06954 13.3806 6.8584C15.1668 6.8584 16.8547 6.8584 18.6606 6.8584C18.5661 5.94477 18.5543 5.05931 18.3576 4.21812C18.1766 3.44133 17.5235 2.98653 16.8035 2.68064C17.2481 1.63016 18.0311 1.40075 19.0029 1.4249C20.4389 1.46112 21.1235 2.12924 21.1275 3.5983C21.1314 6.17016 21.1275 8.74202 21.1275 11.3139C21.1275 11.4829 21.1157 11.656 21.1039 11.8532C18.995 11.8532 16.9255 11.8532 14.8442 11.8532C14.8245 11.7888 14.8048 11.7284 14.7891 11.6681C14.3878 10.0501 13.3884 9.08815 11.7871 8.75409C11.6022 8.71385 11.4055 8.55688 11.2835 8.39991C9.69402 6.37945 6.66057 6.04137 4.76418 7.76399C4.04418 8.41198 3.38713 9.10425 2.58451 9.65968C1.86451 10.1588 1.54975 10.9919 1.36484 11.9015C0.904509 11.9015 0.459919 11.9015 -0.000408982 11.9015C-0.000408982 12.8031 -0.00827783 13.6483 -0.000408982 14.4935C0.027132 17.7697 2.27762 20.5589 5.4173 21.219C5.63762 21.2673 5.85795 21.3115 6.10976 21.3639C5.77533 22.2533 5.45664 23.0986 5.11828 23.9961C5.555 23.9961 5.92877 23.984 6.29861 24.0001C6.53861 24.0122 6.66057 23.9236 6.7432 23.6902C6.9832 23.0181 7.25467 22.354 7.49467 21.6818C7.5773 21.4524 7.69533 21.3719 7.93533 21.3719C10.6343 21.38 13.3373 21.38 16.0363 21.3719C16.2802 21.3719 16.3943 21.4564 16.477 21.6858C16.717 22.358 16.9688 23.0301 17.2442 23.6902C17.2993 23.819 17.4606 23.9719 17.5825 23.984C17.9839 24.0202 18.3891 23.9961 18.8573 23.9961C18.5189 23.0986 18.2042 22.2574 17.8658 21.3598C17.9839 21.3317 18.0389 21.3115 18.1019 21.3035C19.8999 21.0459 21.3557 20.1765 22.5084 18.7477C24.1491 16.7192 24.0547 14.3244 23.9524 11.8733ZM17.1301 5.43362C16.3629 5.43362 15.6232 5.43362 14.8599 5.43362C14.7694 4.93454 14.9307 4.54413 15.3006 4.25837C15.698 3.94846 16.1425 3.92431 16.5714 4.17385C17.016 4.43546 17.2127 4.84599 17.1301 5.43362ZM13.7976 13.3464C15.2809 13.3464 16.7209 13.3464 18.1924 13.3464C18.1924 14.0347 18.1924 14.6947 18.1924 15.391C16.7248 15.391 15.273 15.391 13.7976 15.391C13.7976 14.7108 13.7976 14.0508 13.7976 13.3464ZM4.31566 10.2554C4.53598 10.1749 4.76812 9.98971 4.88615 9.78847C6.14123 7.57482 9.1668 7.5225 10.4376 9.72408C10.6383 10.0702 10.8271 10.203 11.2324 10.191C12.2829 10.1507 13.1996 10.9033 13.3176 11.8653C9.84352 11.8653 6.37336 11.8653 2.84025 11.8653C3.06451 11.0281 3.56418 10.5371 4.31566 10.2554ZM17.3465 19.9109C13.774 19.9753 10.2016 19.9713 6.6291 19.9109C3.67041 19.8586 1.42385 17.4195 1.40812 14.3929C1.40812 14.0588 1.40812 13.7247 1.40812 13.3585C5.05926 13.3585 8.68287 13.3585 12.3616 13.3585C12.3616 14.5257 12.3616 15.6567 12.3616 16.8279C14.7773 16.8279 17.1694 16.8279 19.6088 16.8279C19.6088 15.6889 19.6088 14.5458 19.6088 13.3625C20.6121 13.3625 21.5681 13.3625 22.5202 13.3625C23.1025 16.7232 20.6829 19.8505 17.3465 19.9109Z" fill="#0BB68E"/>
<path d="M11.0741 2.73309C10.6138 2.73309 10.1888 2.73309 9.72852 2.73309C9.72852 3.204 9.72852 3.6588 9.72852 4.12971C10.1692 4.12971 10.5862 4.12971 11.0741 4.12971C11.0741 3.6588 11.0741 3.204 11.0741 2.73309Z" fill="#0BB68E"/>
<path d="M5.69326 2.74121C5.229 2.74121 4.78834 2.74121 4.34375 2.74121C4.34375 3.22419 4.34375 3.67094 4.34375 4.11367C4.81588 4.11367 5.25654 4.11367 5.69326 4.11367C5.69326 3.63472 5.69326 3.19602 5.69326 2.74121Z" fill="#0BB68E"/>
<path d="M1.37696 4.54834C0.904833 4.54834 0.460243 4.54834 0.0117188 4.54834C0.0117188 5.01522 0.0117188 5.44185 0.0117188 5.91275C0.468112 5.91275 0.920571 5.91275 1.37696 5.91275C1.37696 5.44185 1.37696 4.99107 1.37696 4.54834Z" fill="#0BB68E"/>
</svg>
