<svg width="396" height="410" viewBox="0 0 396 410" fill="none" xmlns="http://www.w3.org/2000/svg">
<path fill-rule="evenodd" clip-rule="evenodd" d="M225.406 344.532C221.025 355.278 209.342 369.661 202.04 380.242C196.361 388.177 200.742 384.871 190.682 388.839C191.98 397.436 198.633 405.702 204.312 410C220.538 404.71 250.556 386.194 266.62 377.432C304.427 356.932 367.383 328.496 368.682 286.669C369.98 248.315 337.528 234.262 332.335 222.855C344.829 216.903 366.085 193.593 373.225 183.508C383.61 168.464 394.319 148.625 395.779 125.811C397.564 100.186 388.315 78.0323 375.983 65.3024C363.651 52.5726 346.452 47.1169 321.464 40.1734C323.249 29.4274 331.848 21.8226 336.229 10.9113C331.362 6.11695 319.841 1.15726 312.702 0C306.374 7.77016 295.827 33.2298 290.634 36.7016C285.442 40.1734 248.934 41.6613 240.334 43.1492C152.227 58.1936 73.3682 109.774 28.4221 184.169C-23.3389 269.806 -13.1166 395.286 132.593 369.827C166.019 363.875 195.712 350.153 225.406 344.532ZM247.798 355.444C248.771 355.278 344.992 318.081 342.071 280.387C340.935 265.343 325.52 251.621 313.189 247.653C309.132 261.706 258.831 333.29 247.798 355.444ZM180.784 169.621L176.89 172.597L175.268 173.258C162.611 179.54 151.74 181.524 137.948 197.726C126.359 211.404 117.586 227.314 112.148 244.512C104.522 268.815 108.579 292.456 129.348 287.165C153.2 281.048 204.474 181.194 216.968 159.536C226.055 143.665 265.971 78.0322 269.541 66.625C214.21 62.6572 141.193 103.988 110.85 128.29C39.7803 185.327 -11.4939 307.5 57.7911 340.399C100.628 360.734 193.278 328.165 236.764 313.452C245.039 310.641 245.364 307.335 249.907 299.73C257.858 286.339 279.276 256.085 282.521 246.661C249.258 248.81 217.78 253.936 228.813 207.149C235.304 179.54 256.073 158.048 271.812 147.302C279.625 150.082 286.57 154.932 291.932 161.355C281.386 173.754 253.315 196.073 254.775 220.54C273.922 224.343 304.264 208.637 316.434 200.702C393.021 151.601 387.991 61.3347 302.479 64.9718L200.256 240.71C189.384 260.218 178.026 282.206 163.422 296.919C124.967 335.605 62.6589 310.806 89.5941 231.948C97.0431 210.189 108.87 190.255 124.318 173.423C141.842 154.577 162.449 142.177 180.784 169.621Z" fill="#F1F1F1"/>
</svg>
