<svg width="24" height="24" viewBox="0 0 24 24" fill="none" xmlns="http://www.w3.org/2000/svg">
<g clip-path="url(#clip0_2420_3450)">
<path d="M20.8527 11.5768C20.4419 11.5166 20.0139 11.5682 19.5902 11.5682C19.5729 11.4306 19.5599 11.3703 19.5556 11.3101C19.521 10.4802 19.3481 10.3168 18.505 10.3168C12.6639 10.3168 6.82708 10.3168 0.985965 10.3168C0.255286 10.3168 0.0174909 10.5275 0.0131674 11.2026C0.000196741 12.3852 -0.00845035 13.5721 0.0131674 14.759C0.0693735 17.9627 1.50911 20.4311 4.10324 22.2716C4.21133 22.349 4.31509 22.4264 4.53127 22.5855C4.25024 22.5855 4.10324 22.5855 3.95624 22.5855C2.88832 22.5855 1.82041 22.5769 0.752494 22.5898C0.302845 22.5941 0.026138 22.8737 0.0174909 23.2736C0.00884383 23.6735 0.289874 23.9573 0.726552 23.9917C0.82167 24.0003 0.916788 23.996 1.00758 23.996C6.86166 23.996 12.7201 23.996 18.5741 23.996C18.6995 23.996 18.8292 24.0089 18.9503 23.9831C19.3351 23.8971 19.5599 23.6649 19.5469 23.2607C19.534 22.8823 19.3048 22.6586 18.9373 22.5984C18.786 22.5726 18.626 22.5855 18.4661 22.5855C17.3592 22.5855 16.2524 22.5855 15.0937 22.5855C15.1585 22.4995 15.1802 22.4565 15.2104 22.435C16.594 21.5449 17.6921 20.3924 18.4963 18.9561C18.5612 18.8443 18.7601 18.754 18.9027 18.7454C19.4043 18.7196 19.9058 18.7454 20.4073 18.7325C22.3529 18.6723 23.8791 17.236 23.9872 15.3782C24.104 13.4474 22.8069 11.8563 20.8527 11.5768ZM17.904 16.5264C16.9658 19.8677 14.6613 21.7857 11.2976 22.435C7.86473 23.1016 4.40589 21.575 2.55974 18.6637C1.86797 17.5757 1.47885 16.3802 1.45723 15.0858C1.43561 13.9806 1.45291 12.8798 1.45291 11.7531C7.01731 11.7531 12.5385 11.7531 18.064 11.7531C18.0813 11.7746 18.1202 11.7961 18.1202 11.8176C18.1029 13.3872 18.3364 14.9869 17.904 16.5264ZM22.2362 16.3114C21.6871 17.1629 20.6278 17.5026 19.3308 17.2833C19.4302 15.8556 19.534 14.4322 19.6334 13.0002C20.6495 12.7808 21.6439 13.1163 22.1843 13.8817C22.6858 14.5999 22.7075 15.5803 22.2362 16.3114Z" fill="#0BB68E"/>
<path d="M9.33183 7.98171C9.65178 8.22252 9.97172 8.21822 10.27 7.95161C10.5554 7.69359 10.5684 7.31516 10.309 6.98404C10.1836 6.82493 10.0409 6.67872 9.92416 6.511C9.45289 5.83156 9.51342 5.30262 10.1187 4.73068C10.2571 4.60167 10.3997 4.48126 10.5338 4.34795C11.0483 3.83191 11.3769 3.22987 11.3639 2.2279C11.3423 1.56565 10.9272 0.834601 10.283 0.219658C9.96307 -0.0856638 9.55666 -0.0684626 9.27563 0.219658C9.01189 0.490577 9.00757 0.860403 9.26698 1.19153C10.2311 2.41711 10.2138 2.66653 9.07242 3.75881C9.05945 3.77171 9.0508 3.78031 9.03783 3.78891C7.82292 4.993 7.95695 6.94963 9.33183 7.98171Z" fill="#0BB68E"/>
<path d="M13.8443 7.96452C14.0086 8.10643 14.4021 8.13223 14.6053 8.03762C14.7912 7.95161 14.9468 7.64199 14.9771 7.40978C14.9987 7.23776 14.8301 7.00985 14.6917 6.85074C13.8919 5.91757 13.9178 5.37573 14.8301 4.54577C14.9122 4.47267 14.9944 4.39956 15.0722 4.32216C15.5694 3.81042 15.885 3.21698 15.8807 2.49023C15.8807 1.69897 15.3878 0.6841 14.7696 0.193865C14.441 -0.0641534 14.0691 -0.0555528 13.7924 0.215366C13.5287 0.477685 13.5201 0.864712 13.7751 1.18724C13.853 1.29044 13.9394 1.37645 14.0173 1.47536C14.6485 2.25801 14.6053 2.83855 13.8659 3.5051C13.7751 3.59111 13.6757 3.66851 13.5849 3.75452C12.0241 5.25102 12.7548 7.02275 13.8443 7.96452Z" fill="#0BB68E"/>
<path d="M4.76834 7.93867C5.07531 8.22679 5.46011 8.22679 5.74546 7.96877C6.04379 7.70215 6.0827 7.28932 5.78005 6.9711C4.85049 5.98203 4.86346 5.22948 5.97893 4.39952C5.9919 4.39092 6.00055 4.37802 6.01352 4.36942C7.23276 3.16963 7.10305 1.213 5.72817 0.180922C5.40822 -0.0598949 5.07963 -0.0598949 4.79428 0.215325C4.50893 0.490544 4.48731 0.817367 4.72078 1.14419C4.86778 1.3463 5.05369 1.52262 5.18772 1.72903C5.58117 2.33107 5.51631 2.86861 5.00613 3.37175C4.85049 3.52656 4.67755 3.65987 4.5219 3.81468C4.0074 4.33072 3.67881 4.93276 3.69178 5.90033C3.71339 6.59268 4.12413 7.32373 4.76834 7.93867Z" fill="#0BB68E"/>
</g>
<defs>
<clipPath id="clip0_2420_3450">
<rect width="24" height="24" fill="white"/>
</clipPath>
</defs>
</svg>
