<svg width="24" height="24" viewBox="0 0 24 24" fill="none" xmlns="http://www.w3.org/2000/svg">
<g clip-path="url(#clip0_2420_3431)">
<path d="M24 2.20562C24 0.769587 23.2385 0 21.8106 0C15.2702 0 8.72583 0 2.18146 0C0.773426 0 0 0.76562 0 2.16198C0 5.44264 0 8.72331 0 12.004C0 15.2529 0 18.5018 0 21.7507C0 23.2582 0.737729 24 2.23302 24C8.74566 24 15.2583 24 21.7709 24C23.2464 24 24 23.2502 24 21.7904C24 15.2648 24 8.73521 24 2.20562ZM11.3079 22.6512C11.1334 22.6592 10.9826 22.675 10.828 22.675C7.96827 22.675 5.11254 22.675 2.25285 22.675C1.49529 22.675 1.32871 22.5045 1.32871 21.7309C1.32871 15.2489 1.32871 8.76694 1.32871 2.28496C1.32871 1.49157 1.49132 1.33289 2.29251 1.33289C5.13634 1.33289 7.9762 1.33289 10.82 1.33289C10.9747 1.33289 11.1254 1.34479 11.3039 1.35273C11.3079 8.46149 11.3079 15.5425 11.3079 22.6512ZM21.8423 22.6711C18.9073 22.675 15.9683 22.6711 13.0332 22.6711C12.9261 22.6711 12.823 22.6592 12.6882 22.6512C12.6882 15.5425 12.6882 8.46149 12.6882 1.35273C12.8627 1.34479 13.0134 1.33289 13.1641 1.33289C16.0238 1.33289 18.8795 1.33289 21.7392 1.33289C22.4968 1.33289 22.6634 1.50347 22.6634 2.27702C22.6634 8.77488 22.6634 15.2727 22.6634 21.7706C22.6673 22.4727 22.4928 22.6671 21.8423 22.6711Z" fill="#0BB68E"/>
<path d="M7.86969 12.6147C7.60791 12.8647 7.35011 13.1225 7.00901 13.4557C7.00901 13.1661 7.00901 12.9956 7.00901 12.8289C7.00901 11.5794 7.01297 10.3298 7.00504 9.08019C7.00107 8.54465 6.7512 8.24316 6.33077 8.24316C5.91034 8.24316 5.6684 8.53672 5.66443 9.08416C5.6565 10.0362 5.66047 10.9883 5.66047 11.9404C5.66047 12.4045 5.66047 12.8647 5.66047 13.3843C5.54941 13.3367 5.53355 13.3328 5.52561 13.3209C5.2797 13.0828 5.03776 12.8408 4.78788 12.6028C4.43488 12.2656 4.03429 12.2379 3.75268 12.5195C3.46711 12.8051 3.49488 13.1899 3.84787 13.547C4.48248 14.1896 5.12502 14.8323 5.77152 15.467C6.17608 15.8637 6.49339 15.8597 6.90192 15.4551C7.54842 14.8204 8.18699 14.1777 8.8216 13.5351C9.1627 13.186 9.1865 12.7853 8.90092 12.5037C8.61535 12.2299 8.23459 12.2656 7.86969 12.6147Z" fill="#0BB68E"/>
<path d="M18.248 8.54875C17.8196 8.12825 17.5063 8.12428 17.0819 8.54478C16.4473 9.16759 15.8206 9.79833 15.1939 10.433C14.8409 10.7901 14.7973 11.1709 15.067 11.4644C15.3565 11.7739 15.7532 11.7461 16.1339 11.3811C16.3957 11.1312 16.6496 10.8773 16.9827 10.5521C16.9827 10.8456 16.9827 11.0162 16.9827 11.1868C16.9827 12.4522 16.9748 13.7177 16.9867 14.9831C16.9907 15.475 17.2643 15.7686 17.6729 15.7606C18.0655 15.7527 18.2995 15.483 18.3233 15.003C18.3313 14.88 18.3273 14.753 18.3273 14.6301C18.3273 13.4757 18.3273 12.3173 18.3273 11.163C18.3273 11.0003 18.3273 10.8377 18.3273 10.6909C18.4106 10.6711 18.4344 10.6592 18.4423 10.6671C18.6922 10.9051 18.9381 11.1431 19.184 11.3811C19.5648 11.7461 19.9614 11.7818 20.2509 11.4803C20.5286 11.1868 20.4969 10.8099 20.1399 10.4489C19.5132 9.80627 18.8826 9.17552 18.248 8.54875Z" fill="#0BB68E"/>
</g>
<defs>
<clipPath id="clip0_2420_3431">
<rect width="24" height="24" fill="white"/>
</clipPath>
</defs>
</svg>
