<svg width="100" height="100" viewBox="0 0 100 100" fill="none" xmlns="http://www.w3.org/2000/svg">
<g clip-path="url(#clip0_1644_2809)">
<path d="M45.6157 82.3158L34.837 93.8117C26.3466 102.867 11.7025 101.833 4.52727 91.7037C4.05397 91.0355 3.59559 90.3569 3.15246 89.6684L3.04524 89.5012C-2.75262 80.4221 -0.0508589 68.3527 9.01301 62.5313L22.13 54.1064L45.6157 82.3158Z" fill="#F2A98C"/>
<path d="M69.7523 29.4925C71.5883 32.7987 75.7568 33.9905 79.0631 32.1546L96.4938 22.4753C99.8 20.6393 100.992 16.4708 99.1559 13.1645C97.3199 9.85829 93.1514 8.66649 89.8451 10.5024L72.4145 20.1817C69.1084 22.0179 67.9164 26.1864 69.7523 29.4925ZM23.2967 8.9788C29.432 7.59501 35.5273 11.4468 36.9111 17.5821L40.3834 32.9774C54.3637 27.8349 69.6002 32.4888 75.8932 44.469C82.8244 57.6642 76.2818 74.7489 61.2799 82.6292C46.2781 90.5095 28.4978 86.2009 21.5666 73.0059C17.9117 66.0481 18.0041 58.0095 21.1072 50.8087C23.9363 44.2438 24.5576 36.9378 22.9848 29.9645L19.5785 14.862C18.981 12.2108 20.6455 9.57685 23.2967 8.9788Z" fill="#FFC5AB"/>
<path d="M81.609 6.76211V80.1088C81.609 83.8424 78.5826 86.8709 74.8469 86.8709H40.0707C36.3371 86.8709 33.3086 83.8424 33.3086 80.1088V6.76211C33.3084 3.02637 36.3371 0 40.0707 0H74.8469C78.5826 0 81.609 3.02637 81.609 6.76211Z" fill="#23B3D1"/>
<path d="M78.0508 7.21123V79.6599C78.0508 81.4806 76.5758 82.9556 74.7549 82.9556H40.1629C38.3422 82.9556 36.8672 81.4806 36.8672 79.6599V7.21123C36.8672 5.39053 38.3422 3.91553 40.1629 3.91553H74.7551C76.5758 3.91553 78.0508 5.39053 78.0508 7.21123Z" fill="#F0DD91"/>
<path d="M45.4797 65.063H69.577C71.3541 65.063 72.7949 66.5036 72.7949 68.281V71.1995C72.7949 72.9769 71.3541 74.4175 69.577 74.4175H45.4797C43.7023 74.4175 42.2617 72.9767 42.2617 71.1995V68.281C42.2617 66.5038 43.7025 65.063 45.4797 65.063Z" fill="white"/>
<path d="M78.1193 7.21123V57.1306H36.9355V7.21123C36.9355 5.39053 38.4105 3.91553 40.2313 3.91553H74.8236C76.6443 3.91553 78.1193 5.39053 78.1193 7.21123Z" fill="#74DCC3"/>
<path d="M44.8164 26.9706V28.008C44.8164 28.5582 45.035 29.0859 45.4241 29.475C45.8131 29.8641 46.3409 30.0827 46.8911 30.0827H50.0031C50.5534 30.0827 51.0811 29.8641 51.4702 29.475C51.8592 29.0859 52.0778 28.5582 52.0778 28.008C52.0778 28.5582 52.2964 29.0859 52.6855 29.475C53.0746 29.8641 53.6023 30.0827 54.1525 30.0827H60.3766C60.9268 30.0827 61.4545 29.8641 61.8436 29.475C62.2327 29.0859 62.4513 28.5582 62.4513 28.008C62.4513 28.5582 62.6698 29.0859 63.0589 29.475C63.448 29.8641 63.9757 30.0827 64.5259 30.0827H67.638C68.1882 30.0827 68.7159 29.8641 69.105 29.475C69.4941 29.0859 69.7127 28.5582 69.7127 28.008V26.9706H44.8164ZM69.4577 25.9333L67.598 19.4239C67.5361 19.2073 67.4052 19.0166 67.2252 18.8809C67.0453 18.7453 66.826 18.6719 66.6006 18.6719H61.8493L63.3016 25.9333H69.4577ZM52.6797 18.6719H47.9284C47.7031 18.6719 47.4838 18.7453 47.3038 18.8809C47.1239 19.0166 46.993 19.2073 46.931 19.4239L45.0713 25.9333H51.2275L52.6797 18.6719ZM59.7337 18.6719H54.7954L53.3431 25.9333H61.186L59.7337 18.6719ZM64.5259 31.12C63.76 31.1206 63.0209 30.8377 62.4513 30.3257C61.8816 30.8377 61.1425 31.1206 60.3766 31.12H54.1525C53.3866 31.1206 52.6475 30.8377 52.0778 30.3257C51.5081 30.8377 50.7691 31.1206 50.0031 31.12H46.8911C46.5375 31.1193 46.1866 31.0579 45.8538 30.9385V42.5308C45.8538 42.8059 45.963 43.0698 46.1576 43.2643C46.3521 43.4588 46.616 43.5681 46.8911 43.5681H48.9658V34.232C48.9658 33.9569 49.0751 33.6931 49.2696 33.4985C49.4642 33.304 49.728 33.1947 50.0031 33.1947H55.1898C55.465 33.1947 55.7288 33.304 55.9234 33.4985C56.1179 33.6931 56.2272 33.9569 56.2272 34.232V43.5681H67.638C67.9131 43.5681 68.177 43.4588 68.3715 43.2643C68.566 43.0698 68.6753 42.8059 68.6753 42.5308V30.9385C68.3425 31.0579 67.9916 31.1193 67.638 31.12H64.5259ZM65.5633 37.3441C65.5633 37.6192 65.454 37.883 65.2595 38.0776C65.0649 38.2721 64.8011 38.3814 64.5259 38.3814H59.3392C59.0641 38.3814 58.8003 38.2721 58.6057 38.0776C58.4112 37.883 58.3019 37.6192 58.3019 37.3441V34.232C58.3019 33.9569 58.4112 33.6931 58.6057 33.4985C58.8003 33.304 59.0641 33.1947 59.3392 33.1947H64.5259C64.8011 33.1947 65.0649 33.304 65.2595 33.4985C65.454 33.6931 65.5633 33.9569 65.5633 34.232V37.3441Z" fill="white"/>
<path d="M84.8847 70.4375L77.5948 74.4854C74.9321 75.9648 71.5735 75.0039 70.094 72.3412C68.8233 70.0535 69.3509 67.2561 71.2099 65.5746C71.5228 65.29 71.8679 65.0429 72.2382 64.8383L79.528 60.7904C80.3449 60.3352 81.2646 60.0964 82.1997 60.0967C84.1395 60.0967 86.0208 61.1205 87.0288 62.9367C87.3097 63.4412 87.5097 63.9866 87.6216 64.5531C88.0681 66.8363 87.0286 69.2453 84.8847 70.4375Z" fill="#F2AEA0"/>
<path d="M87.6166 64.5531C87.3032 64.8372 86.9582 65.0843 86.5883 65.2895L79.2984 69.3373C76.6336 70.8146 73.2748 69.8559 71.7955 67.191C71.5152 66.6865 71.316 66.141 71.2051 65.5746C71.518 65.29 71.8631 65.0429 72.2334 64.8383L79.5232 60.7904C80.3401 60.3352 81.2598 60.0964 82.1949 60.0967C84.1348 60.0967 86.016 61.1205 87.024 62.9367C87.3048 63.4412 87.5048 63.9867 87.6166 64.5531Z" fill="#FFC5AB"/>
<path d="M84.8847 55.6763L77.5948 59.7241C74.9321 61.2036 71.5735 60.2427 70.094 57.58C68.8233 55.2923 69.3509 52.4948 71.2099 50.8134C71.5228 50.5288 71.8679 50.2817 72.2382 50.077L79.528 46.0292C80.3449 45.574 81.2646 45.3352 82.1997 45.3354C84.1395 45.3354 86.0208 46.3593 87.0288 48.1755C87.3097 48.68 87.5097 49.2254 87.6216 49.7919C88.0681 52.0753 87.0286 54.4843 84.8847 55.6763Z" fill="#F2AEA0"/>
<path d="M87.6166 49.7919C87.3032 50.076 86.9582 50.323 86.5883 50.5282L79.2984 54.5761C76.6336 56.0534 73.2748 55.0946 71.7955 52.4298C71.5152 51.9253 71.316 51.3798 71.2051 50.8134C71.518 50.5288 71.8631 50.2817 72.2334 50.077L79.5232 46.0292C80.3401 45.574 81.2598 45.3352 82.1949 45.3354C84.1348 45.3354 86.016 46.3593 87.024 48.1755C87.3048 48.68 87.5048 49.2254 87.6166 49.7919Z" fill="#FFC5AB"/>
<path d="M84.8847 43.5527L77.5948 47.6006C74.9321 49.0801 71.5735 48.1191 70.094 45.4564C68.8233 43.1687 69.3509 40.3713 71.2099 38.6898C71.5228 38.4052 71.8679 38.1581 72.2382 37.9535L79.528 33.9057C80.3449 33.4504 81.2646 33.2116 82.1997 33.2119C84.1395 33.2119 86.0208 34.2357 87.0288 36.052C87.3097 36.5564 87.5097 37.1019 87.6216 37.6684C88.0681 39.9516 87.0286 42.3605 84.8847 43.5527Z" fill="#F2AEA0"/>
<path d="M87.6166 37.6684C87.3032 37.9524 86.9582 38.1995 86.5883 38.4047L79.2984 42.4525C76.6336 43.9299 73.2748 42.9711 71.7955 40.3062C71.5152 39.8017 71.316 39.2563 71.2051 38.6898C71.518 38.4052 71.8631 38.1581 72.2334 37.9535L79.5232 33.9057C80.3401 33.4504 81.2598 33.2116 82.1949 33.2119C84.1348 33.2119 86.016 34.2357 87.024 36.052C87.3048 36.5565 87.5048 37.1019 87.6166 37.6684Z" fill="#FFC5AB"/>
<path d="M77.0543 94.5183C86.9736 94.5183 95.0148 86.477 95.0148 76.5577C95.0148 66.6384 86.9736 58.5972 77.0543 58.5972C67.135 58.5972 59.0938 66.6384 59.0938 76.5577C59.0938 86.477 67.135 94.5183 77.0543 94.5183Z" fill="#74DCC3"/>
<path d="M74.8193 85.632C74.4927 85.6321 74.1697 85.5633 73.8714 85.4302C73.5731 85.2971 73.3062 85.1027 73.0881 84.8596L65.8508 76.7951C64.9927 75.8389 65.0722 74.3682 66.0285 73.5102C66.9843 72.6522 68.4556 72.7317 69.3135 73.6877L74.9908 80.0139L86.2859 69.7945C87.2383 68.9328 88.7095 69.0061 89.5715 69.959C90.4336 70.9117 90.3599 72.3826 89.4072 73.2447L76.3802 85.0313C75.9523 85.4179 75.3961 85.632 74.8193 85.632Z" fill="white"/>
</g>
<defs>
<clipPath id="clip0_1644_2809">
<rect width="100" height="100" fill="white"/>
</clipPath>
</defs>
</svg>
