<svg width="88" height="100" viewBox="0 0 88 100" fill="none" xmlns="http://www.w3.org/2000/svg">
<path d="M63.0516 92.5004H6.71367C3.00801 92.5004 0.00390625 89.4963 0.00390625 85.7906V6.70977C0.00410156 3.0041 3.00801 0 6.71367 0H63.0514C66.757 0 69.7611 3.0041 69.7611 6.70977V85.7906C69.7613 89.4963 66.7572 92.5004 63.0516 92.5004Z" fill="#74DCC3"/>
<path d="M63.0508 0H57.5176C61.2232 0 64.2273 3.0041 64.2273 6.70977V85.7906C64.2273 89.4963 61.2232 92.5004 57.5176 92.5004H63.0508C66.7564 92.5004 69.7605 89.4963 69.7605 85.7906V6.70977C69.7605 3.0041 66.7564 0 63.0508 0Z" fill="#23B3D1"/>
<path d="M56.0301 49.3047H8.60957C8.39819 49.3047 8.18888 49.2631 7.99358 49.1822C7.79829 49.1013 7.62084 48.9828 7.47137 48.8333C7.32191 48.6838 7.20335 48.5064 7.12247 48.3111C7.04159 48.1158 6.99997 47.9065 7 47.6951V41.5402C6.99997 41.3289 7.04159 41.1195 7.12247 40.9242C7.20335 40.729 7.32191 40.5515 7.47137 40.402C7.62084 40.2526 7.79829 40.134 7.99358 40.0531C8.18888 39.9723 8.39819 39.9306 8.60957 39.9307H56.0301C56.2415 39.9306 56.4508 39.9723 56.6461 40.0531C56.8414 40.134 57.0188 40.2526 57.1683 40.402C57.3177 40.5515 57.4363 40.729 57.5172 40.9242C57.5981 41.1195 57.6397 41.3289 57.6396 41.5402V47.6951C57.6396 48.122 57.4701 48.5314 57.1682 48.8333C56.8664 49.1351 56.457 49.3047 56.0301 49.3047Z" fill="white"/>
<path d="M84.1483 66.8428C82.3165 66.7778 80.748 67.9477 80.2103 69.585C80.1468 69.7786 79.8782 69.7829 79.815 69.5891C79.2929 67.993 77.7915 66.8401 76.021 66.8401C74.2495 66.8401 72.7478 67.9942 72.2263 69.5915C72.1638 69.7827 71.8962 69.7827 71.8339 69.5915C71.3124 67.9942 69.8107 66.8401 68.0392 66.8401C65.8351 66.8401 64.0482 68.6268 64.0482 70.8311V57.3307C64.0482 55.1666 62.3653 53.3237 60.2026 53.2467C57.9321 53.1661 56.0661 54.9827 56.0661 57.235V81.6397L49.355 73.6416C47.8499 71.8479 45.2638 71.735 43.6081 73.3907C41.9525 75.0463 41.8292 77.8686 43.3343 79.6624L56.0661 94.8356V97.9508C56.0661 99.0823 56.9833 99.9997 58.115 99.9997H78.0603C83.5464 99.9997 87.9937 95.5522 87.9937 90.0663V70.9268C87.9937 68.7627 86.311 66.9198 84.1483 66.8428Z" fill="#F6BB93"/>
<path d="M84.1482 66.8432C83.285 66.8105 82.4345 67.0599 81.7256 67.5535C82.7822 68.2977 83.4666 69.5471 83.4666 70.9272V90.0666C83.4666 95.5527 79.0191 100 73.5332 100H78.0604C83.5465 100 87.9937 95.5526 87.9937 90.0666V70.9272C87.9936 68.7631 86.3109 66.9201 84.1482 66.8432Z" fill="#E49775"/>
<path d="M20.9926 65.4469H10.1713C8.41973 65.4469 7 64.027 7 62.2756V59.9418C7 58.1902 8.41992 56.7705 10.1713 56.7705H20.9926C22.7441 56.7705 24.1639 58.1904 24.1639 59.9418V62.2756C24.1639 64.027 22.7441 65.4469 20.9926 65.4469Z" fill="#F4D34C"/>
<path d="M56.0301 31.374H8.60957C8.39819 31.374 8.18888 31.3324 7.99358 31.2516C7.79829 31.1707 7.62084 31.0521 7.47137 30.9026C7.32191 30.7532 7.20335 30.5757 7.12247 30.3804C7.04159 30.1851 6.99997 29.9758 7 29.7645V23.6096C6.99997 23.3982 7.04159 23.1889 7.12247 22.9936C7.20335 22.7983 7.32191 22.6208 7.47137 22.4714C7.62084 22.3219 7.79829 22.2034 7.99358 22.1225C8.18888 22.0416 8.39819 22 8.60957 22H56.0301C56.2415 22 56.4508 22.0416 56.6461 22.1225C56.8414 22.2034 57.0188 22.3219 57.1683 22.4714C57.3177 22.6208 57.4363 22.7983 57.5172 22.9936C57.5981 23.1889 57.6397 23.3982 57.6396 23.6096V29.7645C57.6396 30.1913 57.4701 30.6007 57.1682 30.9026C56.8664 31.2044 56.457 31.374 56.0301 31.374Z" fill="white"/>
<path d="M12.9729 46.0825H12.5703C12.1818 46.0825 11.8092 45.9282 11.5345 45.6535C11.2598 45.3788 11.1055 45.0062 11.1055 44.6177C11.1055 44.2292 11.2598 43.8566 11.5345 43.5819C11.8092 43.3072 12.1818 43.1528 12.5703 43.1528H12.9729C13.3614 43.1528 13.7339 43.3072 14.0087 43.5819C14.2834 43.8566 14.4377 44.2292 14.4377 44.6177C14.4377 45.0062 14.2834 45.3788 14.0087 45.6535C13.7339 45.9282 13.3614 46.0825 12.9729 46.0825ZM19.1432 46.0825H18.7408C18.3523 46.0825 17.9797 45.9282 17.705 45.6535C17.4303 45.3788 17.276 45.0062 17.276 44.6177C17.276 44.2292 17.4303 43.8566 17.705 43.5819C17.9797 43.3072 18.3523 43.1528 18.7408 43.1528H19.1432C19.5317 43.1528 19.9043 43.3072 20.179 43.5819C20.4537 43.8566 20.608 44.2292 20.608 44.6177C20.608 45.0062 20.4537 45.3788 20.179 45.6535C19.9043 45.9282 19.5317 46.0825 19.1432 46.0825ZM25.3135 46.0825H24.9111C24.5226 46.0825 24.15 45.9282 23.8753 45.6535C23.6006 45.3788 23.4463 45.0062 23.4463 44.6177C23.4463 44.2292 23.6006 43.8566 23.8753 43.5819C24.15 43.3072 24.5226 43.1528 24.9111 43.1528H25.3135C25.702 43.1528 26.0746 43.3072 26.3493 43.5819C26.624 43.8566 26.7783 44.2292 26.7783 44.6177C26.7783 45.0062 26.624 45.3788 26.3493 45.6535C26.0746 45.9282 25.702 46.0825 25.3135 46.0825ZM31.484 46.0825H31.0816C30.6931 46.0825 30.3206 45.9282 30.0458 45.6535C29.7711 45.3788 29.6168 45.0062 29.6168 44.6177C29.6168 44.2292 29.7711 43.8566 30.0458 43.5819C30.3206 43.3072 30.6931 43.1528 31.0816 43.1528H31.484C31.8725 43.1528 32.2451 43.3072 32.5198 43.5819C32.7945 43.8566 32.9488 44.2292 32.9488 44.6177C32.9488 45.0062 32.7945 45.3788 32.5198 45.6535C32.2451 45.9282 31.8725 46.0825 31.484 46.0825ZM37.6543 46.0825H37.2518C36.8633 46.0825 36.4907 45.9282 36.216 45.6535C35.9412 45.3788 35.7869 45.0062 35.7869 44.6177C35.7869 44.2292 35.9412 43.8566 36.216 43.5819C36.4907 43.3072 36.8633 43.1528 37.2518 43.1528H37.6543C38.0428 43.1528 38.4154 43.3072 38.6901 43.5819C38.9648 43.8566 39.1191 44.2292 39.1191 44.6177C39.1191 45.0062 38.9648 45.3788 38.6901 45.6535C38.4154 45.9282 38.0428 46.0825 37.6543 46.0825Z" fill="#23B3D1"/>
</svg>
