<svg width="50" height="50" viewBox="0 0 50 50" fill="none" xmlns="http://www.w3.org/2000/svg">
<circle cx="25" cy="25" r="25" fill="#0A66C2"/>
<path d="M18.4053 36.986H13.3611V20.9961H18.4053V36.986ZM15.8797 18.7802C15.3075 18.777 14.7491 18.6047 14.275 18.2851C13.8009 17.9655 13.4322 17.5129 13.2156 16.9843C12.9989 16.4558 12.9441 15.8751 13.0578 15.3155C13.1716 14.7559 13.4489 14.2424 13.8548 13.84C14.2607 13.4375 14.777 13.164 15.3384 13.0541C15.8999 12.9441 16.4815 13.0026 17.0096 13.2222C17.5378 13.4418 17.989 13.8126 18.3062 14.2878C18.6235 14.763 18.7925 15.3214 18.7921 15.8924C18.7975 16.2747 18.7257 16.6542 18.581 17.0082C18.4363 17.3622 18.2217 17.6836 17.9499 17.9531C17.6781 18.2225 17.3548 18.4347 16.9991 18.5768C16.6435 18.7189 16.2628 18.7881 15.8797 18.7802ZM36.9977 37H31.9558V28.2645C31.9558 25.6882 30.8585 24.893 29.4419 24.893C27.9461 24.893 26.4783 26.0184 26.4783 28.3296V37H21.4341V21.0077H26.2849V23.2236H26.3502C26.8371 22.24 28.5426 20.559 31.145 20.559C33.9595 20.559 37 22.2261 37 27.1089L36.9977 37Z" fill="white"/>
</svg>
