<svg width="24" height="24" viewBox="0 0 24 24" fill="none" xmlns="http://www.w3.org/2000/svg">
<g clip-path="url(#clip0_2420_3460)">
<path d="M11.9978 1.11646e-05C5.35327 0.0089781 -0.0089557 5.38914 1.12298e-05 12.0292C0.00897816 18.6333 5.39811 24.0135 12.0023 24C18.6423 23.991 24 18.6199 24 11.9754C24 5.38465 18.593 -0.00895577 11.9978 1.11646e-05ZM12.2713 21.9959C6.87765 22.1304 2.18794 17.9697 2.0086 12.2937C1.83823 6.79695 6.10649 2.17001 11.7288 2.0086C17.1941 1.85168 21.821 6.08856 21.9914 11.7019C22.1618 17.2569 17.8083 21.821 12.2713 21.9959Z" fill="#0BB68E"/>
<path d="M13.5616 7.01216C12.4542 6.98974 11.3423 7.00319 10.2349 7.00768C9.33373 7.00768 9.00195 7.34842 9.00195 8.26305C9.00195 11.3432 9.00195 14.4188 9.00195 17.499C9.00195 17.6604 9.00195 17.8263 9.00195 17.9698C9.71034 17.9698 10.3425 17.9698 11.015 17.9698C11.015 16.6426 11.015 15.3514 11.015 13.9974C11.284 13.9974 11.5127 14.0019 11.7414 13.9974C12.5529 13.9795 13.3823 14.0557 14.1714 13.9257C15.9917 13.6163 17.1484 11.9709 16.9736 10.0833C16.8166 8.39307 15.3281 7.04355 13.5616 7.01216ZM13.7051 11.9754C12.8219 12.0292 11.9386 11.9888 11.0195 11.9888C11.0195 10.9666 11.0195 10.0071 11.0195 9.01627C11.9297 9.01627 12.8174 8.97592 13.6961 9.02972C14.4404 9.07456 14.9919 9.75604 14.9963 10.5003C15.0008 11.2401 14.4494 11.926 13.7051 11.9754Z" fill="#0BB68E"/>
</g>
<defs>
<clipPath id="clip0_2420_3460">
<rect width="24" height="24" fill="white"/>
</clipPath>
</defs>
</svg>
