<svg width="100" height="100" viewBox="0 0 100 100" fill="none" xmlns="http://www.w3.org/2000/svg">
<circle cx="50" cy="50" r="50" fill="#F4E4A3"/>
<path d="M34.7067 35.6469C34.7067 33.1763 36.7067 31.1763 39.1773 31.1763H60.8243C63.2949 31.1763 65.2949 33.1763 65.2949 35.6469V64.3527C65.2949 66.8233 63.2949 68.8233 60.8243 68.8233H39.1773C36.7067 68.8233 34.7067 66.8233 34.7067 64.3527V35.6469ZM37.0596 64.3527C37.0596 65.5292 38.0008 66.4704 39.1773 66.4704H60.8243C62.0008 66.4704 62.942 65.5292 62.942 64.3527V35.6469C62.942 34.4704 62.0008 33.5292 60.8243 33.5292H39.1773C38.0008 33.5292 37.0596 34.4704 37.0596 35.6469V64.3527Z" fill="#AD8B04"/>
<path d="M57.1761 52.3527H43.2938C42.9408 52.3527 42.5879 52.235 42.3526 51.8821C42.1173 51.6468 41.9997 51.2939 42.1173 50.9409C42.5879 48.1174 44.3526 45.8821 46.7055 44.8233C45.9997 43.9997 45.5291 42.9409 45.5291 41.6468C45.5291 39.0586 47.6467 36.9409 50.235 36.9409C52.8232 36.9409 54.9408 39.0586 54.9408 41.6468C54.9408 42.8233 54.4702 43.8821 53.7644 44.8233C56.1173 45.9997 57.9997 48.235 58.3526 50.9409C58.3526 51.2939 58.3526 51.6468 58.1173 51.8821C57.882 52.235 57.5291 52.3527 57.1761 52.3527ZM52.5879 41.7644C52.5879 40.4703 51.5291 39.4115 50.235 39.4115C48.9408 39.4115 47.882 40.4703 47.882 41.7644C47.882 43.0586 48.9408 44.1174 50.235 44.1174C51.5291 44.1174 52.5879 43.0586 52.5879 41.7644ZM50.235 46.4703C47.882 46.4703 45.7644 47.8821 44.8232 49.9997H55.6467C54.7055 47.8821 52.5879 46.4703 50.235 46.4703ZM40.5879 55.8821H59.4114C60.1173 55.8821 60.5879 56.3527 60.5879 57.0586C60.5879 57.7644 60.1173 58.235 59.4114 58.235H40.5879C39.882 58.235 39.4114 57.7644 39.4114 57.0586C39.4114 56.3527 39.882 55.8821 40.5879 55.8821ZM40.5879 60.588H59.4114C60.1173 60.588 60.5879 61.0586 60.5879 61.7644C60.5879 62.4703 60.1173 62.9409 59.4114 62.9409H40.5879C39.882 62.9409 39.4114 62.4703 39.4114 61.7644C39.4114 61.0586 39.882 60.588 40.5879 60.588Z" fill="#AD8B04"/>
</svg>
