<svg width="100" height="100" viewBox="0 0 100 100" fill="none" xmlns="http://www.w3.org/2000/svg">
<path fill-rule="evenodd" clip-rule="evenodd" d="M90.1225 33.4453C94.4809 33.4453 98.0469 37.0113 98.0469 41.3697V87.558C98.0469 91.9164 94.4809 95.4824 90.1225 95.4824H9.87773C5.51914 95.4826 1.95312 91.9166 1.95312 87.5582V41.3699C1.95312 37.0115 5.51914 33.4455 9.87754 33.4455H90.1225V33.4453Z" fill="#74DCC3"/>
<path fill-rule="evenodd" clip-rule="evenodd" d="M22.4121 61.4492H77.5867C78.1246 61.4492 78.5633 61.8879 78.5633 62.4258V68.0529C78.5633 68.5908 78.1246 69.0295 77.5867 69.0295H22.4121C22.1533 69.029 21.9052 68.9259 21.7221 68.7429C21.5391 68.5599 21.4361 68.3118 21.4355 68.0529V62.4258C21.4361 62.1669 21.5391 61.9188 21.7221 61.7358C21.9052 61.5528 22.1533 61.4497 22.4121 61.4492ZM43.8459 75.9512H56.1529C57.5641 75.9512 58.7184 77.1057 58.7184 78.5166V80.7098C58.7184 82.1209 57.5639 83.2752 56.1529 83.2752H43.8459C42.4348 83.2752 41.2805 82.1207 41.2805 80.7098V78.5166C41.2805 77.1055 42.4348 75.9512 43.8459 75.9512Z" fill="white"/>
<path d="M50.0008 50.5108C62.7016 50.5108 72.9977 40.2148 72.9977 27.514C72.9977 14.8131 62.7016 4.51709 50.0008 4.51709C37.3 4.51709 27.0039 14.8131 27.0039 27.514C27.0039 40.2148 37.3 50.5108 50.0008 50.5108Z" fill="white"/>
<path d="M50 46C60.4934 46 69 37.4934 69 27C69 16.5066 60.4934 8 50 8C39.5066 8 31 16.5066 31 27C31 37.4934 39.5066 46 50 46Z" fill="#BBF3FF"/>
<path fill-rule="evenodd" clip-rule="evenodd" d="M55.3273 31.2175L64.793 33.5165C66.0559 33.8231 66.9213 34.9159 66.9213 36.2153V36.3642C63.7305 42.4511 57.3523 46.6044 50.0031 46.6044C42.517 46.6044 36.0387 42.2948 32.9102 36.022C32.9914 34.8087 33.8334 33.8124 35.0318 33.5163L44.4975 31.1782L55.3273 31.2175Z" fill="#74DCC3"/>
<path fill-rule="evenodd" clip-rule="evenodd" d="M49.9084 36.5838C53.3836 36.5838 56.3285 34.359 56.8262 31.5824L55.3232 31.2174V26.3145H44.4934V31.1781L43.0723 31.5291C43.5414 34.3307 46.4109 36.5838 49.9084 36.5838Z" fill="#EFCA9E"/>
<path fill-rule="evenodd" clip-rule="evenodd" d="M42.4805 18.0117C42.7121 18.0117 41.7295 11.4189 49.9102 11.4189C56.2104 11.4189 57.1973 14.4166 57.3234 18.0117L57.34 23.1791C57.34 27.2654 53.9967 30.609 49.9102 30.609C45.8238 30.609 42.4805 27.2656 42.4805 23.1791V18.0117Z" fill="#FED9A8"/>
<path fill-rule="evenodd" clip-rule="evenodd" d="M44.2916 19.8982C43.6643 19.8982 43.057 19.8129 42.4805 19.6539C42.4805 19.4869 42.482 18.7516 42.4857 18.5863C42.5707 14.7119 43.7361 11.4189 49.9102 11.4189C56.5436 11.4189 57.2869 14.7418 57.3369 18.5865C57.3391 18.7518 57.3398 19.4869 57.3398 19.6539C55.0197 20.2934 49.2012 20.5486 47.5719 18.1654C46.8568 19.2115 45.6545 19.8982 44.2916 19.8982Z" fill="#515151"/>
</svg>
