<svg width="100" height="100" viewBox="0 0 100 100" fill="none" xmlns="http://www.w3.org/2000/svg">
<g clip-path="url(#clip0_1584_1645)">
<path d="M63.9605 74.1396L12.658 37.4441C11.8256 36.8487 11.6334 35.6912 12.2287 34.8588L31.3823 8.08081C31.9778 7.24845 33.1352 7.0563 33.9676 7.65159L85.2701 44.3469C85.4681 44.4884 85.6362 44.6676 85.7649 44.8741C85.8936 45.0807 85.9804 45.3106 86.0202 45.5506C86.0601 45.7907 86.0523 46.0363 85.9972 46.2733C85.9421 46.5104 85.8409 46.7343 85.6993 46.9322L66.5458 73.7102C65.9505 74.543 64.7929 74.7349 63.9605 74.1396Z" fill="#2AAD91"/>
<path d="M63.5842 72.309L14.5122 37.2092C14.1352 36.9395 13.8807 36.5311 13.8048 36.0738C13.7289 35.6165 13.8378 35.1478 14.1075 34.7707L31.9059 9.8872C32.1756 9.51018 32.584 9.25574 33.0413 9.17984C33.4986 9.10395 33.9673 9.21281 34.3444 9.4825L83.4163 44.5823C83.7933 44.852 84.0478 45.2604 84.1237 45.7177C84.1996 46.175 84.0907 46.6437 83.821 47.0207L66.0224 71.9043C65.8889 72.0909 65.7199 72.2495 65.5251 72.3709C65.3303 72.4922 65.1135 72.574 64.8871 72.6116C64.6607 72.6492 64.4291 72.6418 64.2055 72.5899C63.982 72.538 63.7708 72.4425 63.5842 72.309Z" fill="#74DCC3"/>
<path d="M75.705 51.2782C73.1889 49.4786 72.6083 45.98 74.4079 43.4641C74.4818 43.3608 74.5587 43.2607 74.6381 43.1641C74.7286 43.0545 74.7956 42.9275 74.8349 42.7909C74.8742 42.6543 74.885 42.5111 74.8666 42.3702C74.8482 42.2293 74.801 42.0936 74.728 41.9717C74.655 41.8498 74.5576 41.7442 74.442 41.6615L40.0083 17.0317C39.8927 16.9491 39.7613 16.8911 39.6223 16.8613C39.4834 16.8316 39.3397 16.8307 39.2004 16.8589C39.0611 16.887 38.9291 16.9434 38.8125 17.0248C38.6959 17.1061 38.5973 17.2105 38.5228 17.3315C38.4566 17.4388 38.3868 17.5439 38.3134 17.6464C36.5138 20.1625 33.0152 20.7433 30.4993 18.9435L30.4905 18.937C30.0185 18.598 29.3646 18.6925 29.0267 19.1651L21.9577 29.0478C21.6197 29.5204 21.7416 30.1698 22.2148 30.5068L22.2238 30.5133C24.7399 32.3129 25.3205 35.8113 23.5209 38.3274C23.4475 38.4299 23.3707 38.53 23.2907 38.6274C23.2002 38.737 23.1332 38.864 23.0939 39.0006C23.0546 39.1372 23.0438 39.2804 23.0622 39.4213C23.0806 39.5622 23.1278 39.6979 23.2008 39.8198C23.2738 39.9417 23.3712 40.0473 23.4867 40.13L57.9205 64.7596C58.0361 64.8422 58.1675 64.9002 58.3065 64.9299C58.4455 64.9597 58.5891 64.9605 58.7284 64.9323C58.8677 64.9042 58.9998 64.8477 59.1163 64.7664C59.2329 64.6851 59.3315 64.5806 59.406 64.4596C59.4716 64.3531 59.5415 64.2482 59.6154 64.1447C61.415 61.6286 64.9136 61.048 67.4295 62.8476L67.4383 62.8541C67.9103 63.1931 68.5642 63.0986 68.9022 62.626L75.9713 52.7433C76.3093 52.2707 76.1873 51.6213 75.7142 51.2843C75.7109 51.2823 75.7079 51.2802 75.705 51.2782Z" fill="#2EC4A4"/>
<path d="M48.9645 53.6551C56.0113 53.6551 61.7239 47.9425 61.7239 40.8956C61.7239 33.8488 56.0113 28.1362 48.9645 28.1362C41.9177 28.1362 36.2051 33.8488 36.2051 40.8956C36.2051 47.9425 41.9177 53.6551 48.9645 53.6551Z" fill="#F0DD91"/>
<path d="M40.9678 42.4655C41.1513 42.2088 41.4288 42.0194 41.8007 41.8976C42.1727 41.7759 42.4796 41.8012 42.7219 41.9745C42.8825 42.0894 43.0088 42.3584 43.1009 42.7818C43.1931 43.2053 43.3707 43.7151 43.6345 44.3116C43.898 44.9086 44.3151 45.4414 44.8858 45.911L48.2909 41.1504C47.9911 40.7116 47.7643 40.3704 47.6107 40.1278C47.4566 39.8853 47.2609 39.5512 47.0233 39.1261C46.7853 38.7008 46.6333 38.3265 46.5678 38.0039C46.5019 37.6812 46.4525 37.3139 46.4196 36.9025C46.3864 36.491 46.4454 36.0792 46.5974 35.6671C46.749 35.2547 46.9747 34.8394 47.2741 34.4206C48.1149 33.2451 49.1219 32.6161 50.2953 32.5349C51.4684 32.4533 52.6466 32.7439 53.83 33.4061L54.2509 32.8174C54.338 32.6957 54.4729 32.6286 54.6558 32.6161C54.8382 32.6037 55.0113 32.6555 55.1737 32.7716C55.3225 32.878 55.427 33.0247 55.4882 33.2114C55.5488 33.398 55.5358 33.5523 55.4488 33.6741L55.0566 34.2222C55.8625 34.8398 56.5245 35.5227 57.0427 36.2718C57.5603 37.0208 57.6598 37.6184 57.3403 38.0649C57.166 38.3084 56.9025 38.5035 56.55 38.6504C56.1976 38.7972 55.8847 38.7729 55.6117 38.5778C55.5039 38.5008 55.2896 38.1737 54.9696 37.5969C54.6503 37.0214 54.2267 36.5104 53.7205 36.0898L50.778 40.2037C51.1713 40.7914 51.4811 41.3039 51.7072 41.7414C51.9333 42.1788 52.1294 42.7016 52.2947 43.3098C52.46 43.918 52.467 44.5408 52.3162 45.1778C52.1654 45.8151 51.8535 46.4649 51.3802 47.1267C50.5153 48.3357 49.498 49.061 48.3286 49.3022C47.159 49.5433 45.9507 49.3414 44.7037 48.6959L44.2186 49.3741C44.1331 49.4937 43.9927 49.5539 43.7974 49.5553C43.6021 49.5561 43.4302 49.5035 43.2815 49.3972C43.1192 49.2812 43.0135 49.1351 42.9649 48.9602C42.9164 48.7847 42.9351 48.6373 43.0205 48.5176L43.4623 47.9C42.2947 47.0443 41.4892 46.061 41.0462 44.9502C40.6035 43.8394 40.5774 43.0114 40.9678 42.4655ZM49.4288 35.6559C49.0519 36.1827 48.9284 36.702 49.059 37.2133C49.1888 37.7249 49.4951 38.3371 49.9778 39.0496L52.6174 35.3592C51.1886 34.5823 50.1258 34.6816 49.4288 35.6559ZM45.9909 46.64C47.3362 47.2757 48.4102 47.0331 49.2119 45.9122C49.6368 45.318 49.8145 44.7406 49.7447 44.1806C49.6747 43.6204 49.4427 43.0153 49.0484 42.3655L45.9909 46.64Z" fill="#2AAD91"/>
<path d="M33.5262 18.3853C34.9893 18.3853 36.1754 17.1993 36.1754 15.7361C36.1754 14.273 34.9893 13.0869 33.5262 13.0869C32.063 13.0869 30.877 14.273 30.877 15.7361C30.877 17.1993 32.063 18.3853 33.5262 18.3853Z" fill="#2AAD91"/>
<path d="M77.7627 50.0264C79.2259 50.0264 80.4121 48.8402 80.4121 47.377C80.4121 45.9137 79.2259 44.7275 77.7627 44.7275C76.2995 44.7275 75.1133 45.9137 75.1133 47.377C75.1133 48.8402 76.2995 50.0264 77.7627 50.0264Z" fill="url(#paint0_linear_1584_1645)"/>
<path d="M20.1668 37.0641C21.6299 37.0641 22.816 35.878 22.816 34.4148C22.816 32.9517 21.6299 31.7656 20.1668 31.7656C18.7037 31.7656 17.5176 32.9517 17.5176 34.4148C17.5176 35.878 18.7037 37.0641 20.1668 37.0641Z" fill="#2AAD91"/>
<path d="M64.4014 68.7046C65.8646 68.7046 67.0508 67.5184 67.0508 66.0552C67.0508 64.5919 65.8646 63.4058 64.4014 63.4058C62.9381 63.4058 61.752 64.5919 61.752 66.0552C61.752 67.5184 62.9381 68.7046 64.4014 68.7046Z" fill="url(#paint1_linear_1584_1645)"/>
<path d="M61.2514 73.5136L25.3875 21.6265C24.8055 20.7846 25.0163 19.6303 25.8583 19.0485L52.9414 0.328892C53.7834 -0.253069 54.9377 -0.0422847 55.5194 0.799676L91.3834 52.6869C91.9653 53.5289 91.7545 54.6832 90.9126 55.265L63.8295 73.9846C63.4251 74.264 62.9264 74.3713 62.4429 74.283C61.9594 74.1947 61.5308 73.9179 61.2514 73.5136Z" fill="#2AAD91"/>
<path d="M61.5169 71.6636L27.2124 22.0324C26.9488 21.6511 26.8475 21.1807 26.9308 20.7247C27.014 20.2687 27.275 19.8644 27.6563 19.6008L52.8234 2.20555C53.2047 1.94198 53.6751 1.84068 54.1311 1.92393C54.5871 2.00719 54.9914 2.26817 55.2549 2.64947L89.5595 52.2806C89.823 52.662 89.9243 53.1324 89.8411 53.5884C89.7578 54.0444 89.4968 54.4486 89.1155 54.7122L63.9485 72.1075C63.5671 72.3711 63.0967 72.4724 62.6407 72.3891C62.1847 72.3059 61.7805 72.0449 61.5169 71.6636Z" fill="#74DCC3"/>
<path d="M80.0366 55.9727C78.2778 53.428 78.9148 49.9394 81.4595 48.1803C81.5633 48.1086 81.6694 48.0405 81.7778 47.976C81.9 47.9035 82.006 47.8066 82.0892 47.6914C82.1724 47.5761 82.231 47.445 82.2614 47.3062C82.2917 47.1673 82.2932 47.0237 82.2657 46.8843C82.2382 46.7449 82.1823 46.6126 82.1015 46.4956L58.0299 11.6696C57.9491 11.5526 57.8451 11.4536 57.7244 11.3786C57.6037 11.3036 57.4688 11.2542 57.3282 11.2336C57.1876 11.2129 57.0442 11.2214 56.907 11.2585C56.7699 11.2955 56.6418 11.3605 56.5307 11.4492C56.4329 11.5272 56.3315 11.6023 56.227 11.6745C53.6823 13.4333 50.1936 12.7962 48.4348 10.2515L48.4286 10.2425C48.0991 9.76387 47.4519 9.63152 46.9738 9.96191L36.9784 16.8707C36.5005 17.2011 36.3954 17.8535 36.7268 18.3307L36.7331 18.3398C38.4919 20.8845 37.8548 24.3731 35.3101 26.1321C35.2056 26.2043 35.0995 26.2725 34.9919 26.3364C34.8697 26.4089 34.7636 26.5058 34.6804 26.6211C34.5973 26.7363 34.5387 26.8674 34.5083 27.0063C34.4779 27.1451 34.4765 27.2887 34.504 27.4282C34.5315 27.5676 34.5874 27.6999 34.6682 27.8168L58.7397 62.6429C58.8205 62.7598 58.9245 62.8588 59.0453 62.9338C59.166 63.0089 59.3008 63.0582 59.4414 63.0789C59.5821 63.0996 59.7254 63.0911 59.8626 63.054C59.9998 63.0169 60.1279 62.952 60.2389 62.8633C60.3376 62.7847 60.4389 62.7095 60.5427 62.6378C63.0874 60.879 66.576 61.516 68.335 64.0607L68.3413 64.0698C68.6707 64.5484 69.318 64.6807 69.796 64.3503L79.7915 57.4415C80.2695 57.1111 80.3744 56.4588 80.0431 55.9815C80.0408 55.9787 80.0386 55.9757 80.0366 55.9727Z" fill="#2EC4A4"/>
<path d="M58.3864 49.9163C65.4332 49.9163 71.1458 44.2037 71.1458 37.1569C71.1458 30.11 65.4332 24.3975 58.3864 24.3975C51.3395 24.3975 45.627 30.11 45.627 37.1569C45.627 44.2037 51.3395 49.9163 58.3864 49.9163Z" fill="#F0DD91"/>
<path d="M50.3287 35.9288C50.5883 35.7494 50.9134 35.6651 51.3046 35.6761C51.6958 35.6873 51.9762 35.8149 52.1454 36.06C52.2575 36.2224 52.2854 36.5184 52.2291 36.9478C52.1724 37.3776 52.1674 37.9174 52.2136 38.568C52.2597 39.219 52.4719 39.8616 52.8501 40.4965L57.665 37.1684C57.5313 36.6541 57.4332 36.2563 57.3709 35.9761C57.3079 35.6957 57.2368 35.3151 57.157 34.8345C57.0768 34.3537 57.0605 33.9502 57.1079 33.6245C57.155 33.2984 57.2328 32.9361 57.3411 32.538C57.4491 32.1396 57.644 31.772 57.9264 31.4357C58.2085 31.099 58.5613 30.7845 58.9848 30.4918C60.1736 29.67 61.334 29.4188 62.4658 29.7392C63.5972 30.0594 64.6079 30.7314 65.4973 31.7549L66.0928 31.3433C66.216 31.2582 66.3656 31.2406 66.5421 31.2908C66.7179 31.3408 66.8632 31.448 66.9768 31.6123C67.0807 31.7627 67.1295 31.9363 67.124 32.1325C67.1179 32.3288 67.0536 32.4696 66.9303 32.5547L66.376 32.9378C66.9254 33.7916 67.3174 34.6584 67.5517 35.5386C67.7854 36.4186 67.6768 37.0145 67.2252 37.3269C66.9787 37.4971 66.6648 37.5916 66.2834 37.6104C65.9021 37.6294 65.6158 37.5006 65.4252 37.2247C65.3499 37.1157 65.2587 36.7355 65.1528 36.0843C65.0471 35.4348 64.8214 34.8107 64.4873 34.2437L60.3266 37.1196C60.4979 37.8057 60.616 38.3929 60.6809 38.881C60.7456 39.369 60.7532 39.9274 60.703 40.5557C60.6528 41.1839 60.4489 41.7724 60.0915 42.321C59.734 42.8696 59.2205 43.3757 58.5513 43.8382C57.3283 44.6835 56.1258 45.0218 54.9436 44.8531C53.7613 44.6843 52.6926 44.0857 51.7375 43.0563L51.0517 43.5304C50.9307 43.6139 50.7781 43.6231 50.594 43.5584C50.4101 43.4931 50.266 43.3855 50.1621 43.2351C50.0485 43.0708 49.9985 42.8976 50.0121 42.7169C50.026 42.5353 50.0932 42.4029 50.2142 42.3192L50.8387 41.8874C50.0295 40.6873 49.604 39.4894 49.563 38.2941C49.5211 37.0984 49.7766 36.3104 50.3287 35.9288ZM60.5946 32.3829C60.0619 32.7512 59.7699 33.198 59.7197 33.7233C59.6689 34.2486 59.7499 34.9282 59.9632 35.7622L63.6958 33.1823C62.6136 31.968 61.5801 31.7018 60.5946 32.3829ZM53.6434 41.5563C54.6942 42.6096 55.787 42.7447 56.9207 41.961C57.5215 41.5457 57.8838 41.0623 58.0077 40.5118C58.1313 39.9608 58.1177 39.3131 57.9666 38.568L53.6434 41.5563Z" fill="#2AAD91"/>
<path d="M53.8746 10.4372C52.6709 11.2692 51.0209 10.9678 50.1889 9.76426C49.357 8.56053 49.6583 6.91053 50.8619 6.07857C52.0656 5.24661 53.7158 5.54798 54.5477 6.75151C55.3795 7.95504 55.0781 9.60524 53.8746 10.4372Z" fill="#2AAD91"/>
<path d="M83.2939 55.6475C84.7572 55.6475 85.9434 54.4613 85.9434 52.998C85.9434 51.5348 84.7572 50.3486 83.2939 50.3486C81.8307 50.3486 80.6445 51.5348 80.6445 52.998C80.6445 54.4613 81.8307 55.6475 83.2939 55.6475Z" fill="url(#paint2_linear_1584_1645)"/>
<path d="M33.4773 23.9644C34.9405 23.9644 36.1266 22.7784 36.1266 21.3152C36.1266 19.8521 34.9405 18.666 33.4773 18.666C32.0142 18.666 30.8281 19.8521 30.8281 21.3152C30.8281 22.7784 32.0142 23.9644 33.4773 23.9644Z" fill="#2AAD91"/>
<path d="M64.4031 68.7047C65.8662 68.7047 67.0523 67.5186 67.0523 66.0555C67.0523 64.5923 65.8662 63.4062 64.4031 63.4062C62.94 63.4062 61.7539 64.5923 61.7539 66.0555C61.7539 67.5186 62.94 68.7047 64.4031 68.7047Z" fill="url(#paint3_linear_1584_1645)"/>
<path d="M58.9151 72.0084L42.7188 11.048C42.4561 10.0588 43.0449 9.04389 44.0339 8.78114L75.8529 0.327218C76.8422 0.0644724 77.8571 0.653296 78.1198 1.64232L94.3161 62.6027C94.5788 63.5919 93.99 64.6068 93.001 64.8696L61.182 73.3237C60.9467 73.3862 60.7015 73.4017 60.4603 73.3694C60.2191 73.3372 59.9866 73.2577 59.7761 73.1356C59.5656 73.0134 59.3812 72.851 59.2335 72.6576C59.0858 72.4642 58.9776 72.2436 58.9151 72.0084Z" fill="#2AAD91"/>
<path d="M59.789 70.3568L44.2969 12.047C44.2379 11.8251 44.2233 11.5939 44.2537 11.3664C44.2842 11.1389 44.3591 10.9197 44.4743 10.7211C44.5895 10.5226 44.7426 10.3487 44.925 10.2094C45.1074 10.0701 45.3155 9.96804 45.5373 9.90912L75.1053 2.05324C75.5533 1.93421 76.0303 1.99802 76.4312 2.23064C76.8322 2.46326 77.1243 2.84563 77.2434 3.29363L92.7355 61.6036C92.8545 62.0516 92.7907 62.5286 92.5581 62.9295C92.3255 63.3305 91.9431 63.6226 91.4951 63.7417L61.9269 71.5972C61.7051 71.6561 61.4738 71.6708 61.2463 71.6403C61.0188 71.6099 60.7996 71.5349 60.6011 71.4197C60.4025 71.3046 60.2286 71.1514 60.0893 70.969C59.95 70.7866 59.848 70.5786 59.789 70.3568Z" fill="#74DCC3"/>
<path d="M82.5256 61.8563C81.7313 58.8667 83.5109 55.7991 86.5007 55.0048C86.6235 54.9722 86.7464 54.944 86.8693 54.9201C87.0089 54.8931 87.1414 54.8378 87.2587 54.7575C87.3759 54.6772 87.4754 54.5737 87.5509 54.4533C87.6265 54.3329 87.6765 54.1983 87.6978 54.0578C87.7191 53.9173 87.7113 53.7739 87.6748 53.6365L76.8038 12.7206C76.7673 12.5833 76.703 12.4549 76.6147 12.3435C76.5265 12.2321 76.4163 12.14 76.291 12.073C76.1657 12.006 76.0279 11.9655 75.8862 11.954C75.7446 11.9425 75.6021 11.9602 75.4676 12.0061C75.3491 12.0463 75.2284 12.0828 75.1056 12.1155C72.116 12.9099 69.0484 11.1302 68.254 8.14044L68.2513 8.12985C68.1033 7.56809 67.5387 7.22456 66.9774 7.37378L55.234 10.4938C54.6725 10.643 54.3531 11.2212 54.5033 11.7826L54.506 11.7932C55.3003 14.7828 53.5207 17.8504 50.5309 18.6448C50.4082 18.6773 50.2852 18.7055 50.1625 18.7295C50.0229 18.7564 49.8904 18.8117 49.7731 18.892C49.6558 18.9722 49.5563 19.0758 49.4808 19.1962C49.4052 19.3166 49.3553 19.4512 49.334 19.5917C49.3127 19.7322 49.3205 19.8756 49.357 20.013L60.2278 60.9291C60.2643 61.0664 60.3286 61.1948 60.4169 61.3062C60.5051 61.4176 60.6153 61.5097 60.7406 61.5767C60.866 61.6437 61.0037 61.6842 61.1454 61.6957C61.287 61.7072 61.4295 61.6895 61.564 61.6436C61.6825 61.6034 61.8033 61.5669 61.926 61.5342C64.9156 60.7399 67.9833 62.5195 68.7776 65.5093L68.7803 65.5199C68.9284 66.0816 69.4929 66.4252 70.0542 66.2759L81.7976 63.1559C82.3591 63.0067 82.6786 62.4285 82.5284 61.8671L82.5256 61.8563Z" fill="#2EC4A4"/>
<path d="M68.5172 49.5843C75.5641 49.5843 81.2766 43.8717 81.2766 36.8248C81.2766 29.778 75.5641 24.0654 68.5172 24.0654C61.4704 24.0654 55.7578 29.778 55.7578 36.8248C55.7578 43.8717 61.4704 49.5843 68.5172 49.5843Z" fill="#F0DD91"/>
<path d="M61.3515 32.9445C61.6564 32.8635 61.9909 32.8941 62.3554 33.0368C62.7198 33.1798 62.9403 33.3947 63.0168 33.6827C63.0674 33.8735 62.9935 34.1615 62.7952 34.5466C62.5966 34.9319 62.4092 35.4382 62.2325 36.066C62.0556 36.6941 62.038 37.3705 62.1792 38.096L67.836 36.5931C67.8843 36.0639 67.9264 35.6564 67.9627 35.3715C67.9984 35.0864 68.0602 34.7041 68.1476 34.2249C68.2349 33.7452 68.356 33.36 68.5109 33.0696C68.6656 32.7786 68.8613 32.4641 69.0978 32.126C69.3343 31.7876 69.6421 31.5076 70.0215 31.2866C70.4009 31.0652 70.8394 30.8886 71.337 30.7564C72.7339 30.3852 73.9107 30.5415 74.8674 31.2258C75.8239 31.91 76.5476 32.8843 77.0384 34.1482L77.738 33.9623C77.8827 33.9239 78.0294 33.958 78.1784 34.0649C78.327 34.1715 78.4274 34.3215 78.4786 34.5145C78.5256 34.6911 78.5127 34.8709 78.4411 35.0539C78.369 35.2364 78.2607 35.3472 78.116 35.3856L77.4647 35.5586C77.6929 36.548 77.7684 37.4962 77.6911 38.4037C77.6133 39.3107 77.3096 39.8349 76.779 39.9758C76.4896 40.0527 76.1621 40.0352 75.7968 39.9241C75.4315 39.8129 75.2058 39.5949 75.1196 39.2707C75.0856 39.1427 75.1284 38.7539 75.249 38.1054C75.3692 37.4564 75.368 36.8039 75.2454 36.1482L70.357 37.447C70.2862 38.1505 70.1986 38.7431 70.0945 39.2245C69.9902 39.7056 69.8086 40.2337 69.5488 40.808C69.289 41.3821 68.898 41.867 68.376 42.2623C67.8541 42.6576 67.1998 42.9601 66.4135 43.1692C64.9768 43.5509 63.7305 43.4623 62.6751 42.9039C61.6196 42.3451 60.8166 41.4202 60.266 40.1284L59.4602 40.3425C59.318 40.3803 59.1713 40.3372 59.0202 40.2141C58.8692 40.0905 58.77 39.9403 58.7229 39.7637C58.6715 39.5707 58.6831 39.3909 58.757 39.2252C58.8315 39.059 58.9396 38.9572 59.0817 38.9196L59.8156 38.7247C59.4602 37.3213 59.4651 36.0501 59.8307 34.9115C60.1958 33.7719 60.7029 33.1168 61.3515 32.9445ZM72.2117 33.0805C71.5856 33.2468 71.16 33.5686 70.9349 34.046C70.7094 34.5231 70.5556 35.1901 70.4743 36.047L74.8594 34.8819C74.2521 33.3731 73.3694 32.7729 72.2117 33.0805ZM62.567 39.3615C63.1996 40.7082 64.1821 41.2051 65.5141 40.8511C66.22 40.6637 66.7245 40.3313 67.0272 39.8551C67.33 39.3784 67.5362 38.7643 67.646 38.0121L62.567 39.3615Z" fill="#2AAD91"/>
<path d="M73.3107 10.1558C71.8966 10.5315 70.4456 9.68969 70.0699 8.27557C69.6943 6.86146 70.536 5.41047 71.9501 5.03479C73.3643 4.6591 74.8152 5.50087 75.1909 6.91498C75.5668 8.3291 74.7248 9.78008 73.3107 10.1558Z" fill="#2AAD91"/>
<path d="M87.2775 62.7192C85.8634 63.0949 84.4124 62.2532 84.0367 60.8391C83.6611 59.4249 84.5028 57.974 85.9169 57.5983C87.3311 57.2226 88.782 58.0643 89.1577 59.4785C89.5336 60.8926 88.6916 62.3436 87.2775 62.7192Z" fill="#2AAD91"/>
<path d="M50.4363 16.1412C51.8994 16.1412 53.0855 14.9551 53.0855 13.492C53.0855 12.0289 51.8994 10.8428 50.4363 10.8428C48.9732 10.8428 47.7871 12.0289 47.7871 13.492C47.7871 14.9551 48.9732 16.1412 50.4363 16.1412Z" fill="#2AAD91"/>
<path d="M64.4014 68.7046C65.8646 68.7046 67.0508 67.5184 67.0508 66.0552C67.0508 64.5919 65.8646 63.4058 64.4014 63.4058C62.9381 63.4058 61.752 64.5919 61.752 66.0552C61.752 67.5184 62.9381 68.7046 64.4014 68.7046Z" fill="#2AAD91"/>
<path d="M90.4547 94.601H15.7457C12.8529 94.601 10.5078 92.2559 10.5078 89.3632V36.6602C10.5078 33.7675 12.8529 31.4224 15.7457 31.4224H90.4545C93.3472 31.4224 95.6923 33.7675 95.6923 36.6602V89.3632C95.6925 92.2559 93.3474 94.601 90.4547 94.601Z" fill="#D5A98A"/>
<path d="M90.4547 31.4224H90.44V84.1106C90.44 87.0033 88.0949 89.3484 85.2021 89.3484H10.5078V89.3632C10.5078 92.2559 12.8529 94.601 15.7457 94.601H90.4545C93.3472 94.601 95.6923 92.2559 95.6923 89.3632V36.6602C95.6925 33.7675 93.3474 31.4224 90.4547 31.4224Z" fill="#C0916F"/>
<path d="M94.3448 71.3284H78.6485C77.1503 71.3284 75.9355 70.1136 75.9355 68.6154V57.4078C75.9355 55.9095 77.1503 54.6948 78.6485 54.6948H94.345C95.8432 54.6948 97.0579 55.9095 97.0579 57.4078V68.6154C97.0577 70.1136 95.8432 71.3284 94.3448 71.3284Z" fill="#C0916F"/>
<path d="M84 68C86.7614 68 89 65.7614 89 63C89 60.2386 86.7614 58 84 58C81.2386 58 79 60.2386 79 63C79 65.7614 81.2386 68 84 68Z" fill="#F0DD91"/>
<rect x="3" y="68" width="37" height="8" rx="4" fill="#F0DD91"/>
<rect x="15" y="68" width="13" height="8" rx="4" fill="#E0C082"/>
<rect x="3" y="76" width="37" height="8" rx="4" fill="#F0DD91"/>
<rect x="15" y="76" width="13" height="8" rx="4" fill="#E0C082"/>
<rect x="3" y="84" width="37" height="8" rx="4" fill="#F0DD91"/>
<rect x="15" y="84" width="13" height="8" rx="4" fill="#E0C082"/>
<rect x="3" y="92" width="37" height="8" rx="4" fill="#F0DD91"/>
<rect x="15" y="92" width="13" height="8" rx="4" fill="#E0C082"/>
</g>
<defs>
<linearGradient id="paint0_linear_1584_1645" x1="77.5781" y1="46.1585" x2="78.4973" y2="53.4475" gradientUnits="userSpaceOnUse">
<stop stop-color="#91F27F"/>
<stop offset="1" stop-color="#00B302"/>
</linearGradient>
<linearGradient id="paint1_linear_1584_1645" x1="64.2062" y1="64.8278" x2="65.1252" y2="72.1165" gradientUnits="userSpaceOnUse">
<stop stop-color="#91F27F"/>
<stop offset="1" stop-color="#00B302"/>
</linearGradient>
<linearGradient id="paint2_linear_1584_1645" x1="83.5352" y1="51.8015" x2="81.9398" y2="58.9733" gradientUnits="userSpaceOnUse">
<stop stop-color="#91F27F"/>
<stop offset="1" stop-color="#00B302"/>
</linearGradient>
<linearGradient id="paint3_linear_1584_1645" x1="64.6459" y1="64.8612" x2="63.0502" y2="72.0331" gradientUnits="userSpaceOnUse">
<stop stop-color="#91F27F"/>
<stop offset="1" stop-color="#00B302"/>
</linearGradient>
<clipPath id="clip0_1584_1645">
<rect width="100" height="100" fill="white"/>
</clipPath>
</defs>
</svg>
