<svg width="100" height="100" viewBox="0 0 100 100" fill="none" xmlns="http://www.w3.org/2000/svg">
<circle cx="50" cy="50" r="50" fill="#CFF1E9"/>
<path d="M36.2443 34.3926C35.252 34.3969 34.3017 34.7929 33.6 35.4946C32.8984 36.1962 32.5023 37.1466 32.498 38.1388V65.0001C32.5023 65.9923 32.8984 66.9427 33.6 67.6444C34.3017 68.346 35.252 68.7421 36.2443 68.7463H59.9968C62.053 68.7463 63.7518 67.0551 63.7518 65.0001V47.9938C63.7518 47.6623 63.6201 47.3444 63.3857 47.1099C63.1513 46.8755 62.8333 46.7438 62.5018 46.7438C62.1703 46.7438 61.8523 46.8755 61.6179 47.1099C61.3835 47.3444 61.2518 47.6623 61.2518 47.9938V65.0013C61.2549 65.1665 61.2245 65.3306 61.1624 65.4837C61.1003 65.6369 61.0078 65.7758 60.8905 65.8922C60.7732 66.0085 60.6335 66.0999 60.4799 66.1608C60.3263 66.2216 60.162 66.2508 59.9968 66.2463H36.2443C36.0795 66.2508 35.9156 66.2217 35.7624 66.1607C35.6093 66.0997 35.4702 66.0082 35.3536 65.8917C35.237 65.7752 35.1453 65.6362 35.0842 65.4831C35.023 65.33 34.9937 65.1661 34.998 65.0013V38.1401C34.9936 37.9753 35.0227 37.8113 35.0838 37.6581C35.1449 37.5049 35.2365 37.3658 35.3532 37.2493C35.4698 37.1328 35.609 37.0413 35.7622 36.9803C35.9154 36.9194 36.0795 36.8904 36.2443 36.8951H40.8943C41.226 36.8951 41.5441 36.7633 41.7786 36.5288C42.0132 36.2942 42.1449 35.9761 42.1449 35.6445C42.1449 35.3128 42.0132 34.9947 41.7786 34.7601C41.5441 34.5256 41.226 34.3938 40.8943 34.3938H36.2443V34.3926ZM55.5018 34.3926C55.1701 34.3926 54.852 34.5243 54.6175 34.7589C54.3829 34.9934 54.2512 35.3115 54.2512 35.6432C54.2512 35.9749 54.3829 36.293 54.6175 36.5275C54.852 36.7621 55.1701 36.8938 55.5018 36.8938H59.9968C60.162 36.8894 60.3263 36.9185 60.4799 36.9794C60.6335 37.0403 60.7732 37.1316 60.8905 37.248C61.0078 37.3644 61.1003 37.5033 61.1624 37.6564C61.2245 37.8095 61.2549 37.9736 61.2518 38.1388V38.7476C61.2543 39.4351 63.7493 39.4388 63.7518 38.7476V38.1388C63.7518 36.0826 62.053 34.3926 59.9968 34.3926H55.5018Z" fill="#0BB68E"/>
<path d="M43.5148 31.2476C42.5207 31.2535 41.569 31.651 40.8661 32.3539C40.1632 33.0568 39.7657 34.0085 39.7598 35.0026V36.2488C39.7598 38.3051 41.4598 39.9951 43.5148 39.9951H52.7323C53.7245 39.9905 54.6749 39.5943 55.3766 38.8928C56.0784 38.1913 56.4748 37.2411 56.4798 36.2488V35.0026C56.4798 32.9463 54.7873 31.2476 52.7323 31.2476H43.5148ZM43.5148 33.7476H52.7323C53.4473 33.7476 53.9785 34.2888 53.9785 35.0026V36.2488C53.983 36.4136 53.9538 36.5776 53.8928 36.7308C53.8317 36.884 53.74 37.0231 53.6234 37.1396C53.5068 37.2561 53.3676 37.3476 53.2143 37.4085C53.0611 37.4694 52.8971 37.4985 52.7323 37.4938H43.5148C43.3496 37.4984 43.1851 37.4694 43.0314 37.4086C42.8778 37.3478 42.738 37.2564 42.6207 37.14C42.5033 37.0236 42.4109 36.8846 42.3488 36.7314C42.2868 36.5782 42.2565 36.4141 42.2598 36.2488V35.0026C42.2562 34.8368 42.2862 34.672 42.348 34.5181C42.4098 34.3642 42.5021 34.2244 42.6194 34.1072C42.7366 33.9899 42.8764 33.8976 43.0303 33.8358C43.1842 33.774 43.349 33.744 43.5148 33.7476ZM41.6373 42.5413C41.3056 42.5413 40.9875 42.6731 40.7529 42.9076C40.5184 43.1421 40.3866 43.4602 40.3866 43.7919C40.3866 44.1236 40.5184 44.4417 40.7529 44.6763C40.9875 44.9108 41.3056 45.0426 41.6373 45.0426H42.9735C43.2984 45.0323 43.6065 44.896 43.8326 44.6626C44.0588 44.4292 44.1852 44.1169 44.1852 43.7919C44.1852 43.4669 44.0588 43.1547 43.8326 42.9213C43.6065 42.6878 43.2984 42.5516 42.9735 42.5413H41.6373ZM39.7598 60.5013C39.4282 60.5013 39.1103 60.633 38.8759 60.8674C38.6415 61.1018 38.5098 61.4198 38.5098 61.7513C38.5098 62.0828 38.6415 62.4008 38.8759 62.6352C39.1103 62.8696 39.4282 63.0013 39.7598 63.0013H47.9485C48.28 63.0013 48.598 62.8696 48.8324 62.6352C49.0668 62.4008 49.1985 62.0828 49.1985 61.7513C49.1985 61.4198 49.0668 61.1018 48.8324 60.8674C48.598 60.633 48.28 60.5013 47.9485 60.5013H39.7598Z" fill="#0BB68E"/>
<path d="M64.8111 37.9938C63.1836 36.7375 60.8073 37.0488 59.5511 38.6763L46.6148 55.4513C45.5498 56.8325 45.5986 58.5238 45.7561 59.8163C45.9123 61.1088 46.2723 62.1325 46.2723 62.1325C46.3503 62.3611 46.4928 62.5621 46.6828 62.7112C46.8727 62.8603 47.1018 62.9511 47.3423 62.9725C47.3423 62.9725 48.4361 63.0713 49.7411 62.9075C51.0473 62.745 52.7098 62.38 53.7823 60.9888L66.7286 44.2138C67.3301 43.4236 67.5957 42.4281 67.4677 41.4433C67.3397 40.4585 66.8284 39.5639 66.0448 38.9538L64.8111 37.9938ZM63.2886 39.9775L64.5248 40.9275C65.0898 41.3638 65.1823 42.115 64.7461 42.6813L51.8098 59.4663C51.4648 59.9138 50.4523 60.2988 49.4398 60.4263C48.9073 60.4925 48.7986 60.4575 48.4523 60.4538C48.3661 60.1238 48.3036 60.0363 48.2398 59.5125C48.1186 58.5113 48.2361 57.4438 48.5911 56.985L61.5373 40.2C61.6351 40.0669 61.7589 39.9551 61.9012 39.8714C62.0435 39.7876 62.2014 39.7337 62.3652 39.7129C62.529 39.6921 62.6954 39.7048 62.8541 39.7503C63.0128 39.7958 63.1607 39.8731 63.2886 39.9775ZM41.6373 47.6975C41.3057 47.6975 40.9876 47.8293 40.753 48.0638C40.5185 48.2984 40.3867 48.6165 40.3867 48.9482C40.3867 49.2798 40.5185 49.5979 40.753 49.8325C40.9876 50.067 41.3057 50.1988 41.6373 50.1988H42.9736C43.2984 50.1885 43.6065 50.0522 43.8327 49.8188C44.0588 49.5854 44.1853 49.2732 44.1853 48.9482C44.1853 48.6232 44.0588 48.3109 43.8327 48.0775C43.6065 47.8441 43.2984 47.7078 42.9736 47.6975H41.6373ZM41.6373 52.9313C41.3058 52.9313 40.9879 53.063 40.7535 53.2974C40.519 53.5318 40.3873 53.8498 40.3873 54.1813C40.3873 54.5128 40.519 54.8307 40.7535 55.0652C40.9879 55.2996 41.3058 55.4313 41.6373 55.4313H42.9736C43.3051 55.4313 43.6231 55.2996 43.8575 55.0652C44.0919 54.8307 44.2236 54.5128 44.2236 54.1813C44.2236 53.8498 44.0919 53.5318 43.8575 53.2974C43.6231 53.063 43.3051 52.9313 42.9736 52.9313H41.6373Z" fill="#0BB68E"/>
</svg>
