<svg width="100" height="100" viewBox="0 0 100 100" fill="none" xmlns="http://www.w3.org/2000/svg">
<circle cx="50" cy="50" r="50" fill="#F2D5C5"/>
<g clip-path="url(#clip0_1584_1842)">
<mask id="mask0_1584_1842" style="mask-type:luminance" maskUnits="userSpaceOnUse" x="30" y="30" width="40" height="40">
<path d="M70 30H30V70H70V30Z" fill="white"/>
</mask>
<g mask="url(#mask0_1584_1842)">
<path d="M45.3125 61.7969C45.3125 63.0914 44.2633 64.1406 42.9688 64.1406C41.6742 64.1406 40.625 63.0914 40.625 61.7969C40.625 60.5023 41.6742 59.4531 42.9688 59.4531C44.2633 59.4531 45.3125 60.5023 45.3125 61.7969Z" stroke="#986244" stroke-width="2.34375" stroke-linecap="round" stroke-linejoin="round"/>
<path d="M54.6875 54.7656H31.1719V68.8281H54.6875V54.7656Z" stroke="#986244" stroke-width="2.34375" stroke-linecap="round" stroke-linejoin="round"/>
<path d="M42.6367 54.7656C45.0383 50.0094 49.1313 45.2438 52.343 42.9688L47.6555 33.5156C47.6555 33.5156 49.4133 31.1719 51.1711 31.1719C52.9289 31.1719 54.6867 33.5156 54.6867 33.5156C54.6867 33.5156 56.4445 31.1719 58.2023 31.1719C59.9602 31.1719 61.718 33.5156 61.718 33.5156L57.0305 42.9688C61.8867 46.5484 68.8273 56.025 68.8273 61.7969C68.8273 68.2086 62.3844 68.8078 57.4992 68.8281H54.6086" stroke="#986244" stroke-width="2.34375" stroke-linecap="round" stroke-linejoin="round"/>
<path d="M57.0312 42.9688H52.3438" stroke="#986244" stroke-width="2.34375" stroke-linecap="round" stroke-linejoin="round"/>
<path d="M52.3438 50.078C53.8445 48.5772 54.6875 46.464 54.6875 44.3413C54.6875 46.464 55.5305 48.5772 57.0312 50.078" stroke="#986244" stroke-width="2.34375" stroke-linecap="round" stroke-linejoin="round"/>
<path d="M37.1094 61.7969C37.1094 62.4438 36.5844 62.9688 35.9375 62.9688C35.2906 62.9688 34.7656 62.4438 34.7656 61.7969C34.7656 61.15 35.2906 60.625 35.9375 60.625C36.5844 60.625 37.1094 61.15 37.1094 61.7969Z" fill="#986244"/>
<path d="M51.1719 61.7969C51.1719 62.4438 50.6469 62.9688 50 62.9688C49.3531 62.9688 48.8281 62.4438 48.8281 61.7969C48.8281 61.15 49.3531 60.625 50 60.625C50.6469 60.625 51.1719 61.15 51.1719 61.7969Z" fill="#986244"/>
</g>
</g>
<defs>
<clipPath id="clip0_1584_1842">
<rect width="40" height="40" fill="white" transform="translate(30 30)"/>
</clipPath>
</defs>
</svg>
