<svg width="19" height="18" viewBox="0 0 19 18" fill="none" xmlns="http://www.w3.org/2000/svg">
<path d="M6.23768 17.5C4.31474 14.5992 2.41209 11.7291 0.470703 8.80134C0.877425 8.38679 1.29245 7.93859 1.7416 7.53174C1.82091 7.46057 2.07915 7.51154 2.1972 7.59522C3.37771 8.43488 4.5453 9.29282 5.71751 10.144C5.85401 10.2431 5.99512 10.3354 6.1602 10.448C6.43873 10.0892 6.69697 9.75353 6.95797 9.42075C9.37525 6.32947 12.0323 3.49596 15.1247 1.12316C15.6827 0.695152 16.2416 0.439309 16.9462 0.512407C17.411 0.560498 17.8841 0.521063 18.4707 0.521063C13.3807 5.51 9.75615 11.4829 6.23768 17.5Z" fill="#1D8D70"/>
</svg>
