<svg width="100" height="100" viewBox="0 0 100 100" fill="none" xmlns="http://www.w3.org/2000/svg">
<path d="M93.4375 29.9611C92.9686 29.4336 92.3242 29.082 91.6211 28.9648L83.0076 27.7932L74.3945 26.5625H8.78906C6.38691 26.5625 4.16035 27.5584 2.57812 29.1406C0.995898 30.7229 0 32.9494 0 35.3516V88.0859C0 90.4881 0.995898 92.7146 2.57812 94.2969C4.16035 95.8791 6.38691 96.875 8.78906 96.875H85.3516C87.7537 96.875 89.9803 95.8791 91.5625 94.2969C93.1447 92.7146 94.1406 90.4881 94.1406 88.0859V31.8943C94.1406 31.133 93.8477 30.4881 93.4375 29.9611Z" fill="#74DCC3"/>
<path d="M94.1406 31.8943V88.0859C94.1406 90.4881 93.1447 92.7146 91.5625 94.2969C89.9803 95.8791 87.7537 96.875 85.3516 96.875H47.2656V26.5625H74.3945L83.0076 27.7932L91.6211 28.9648C92.3242 29.0822 92.9686 29.4338 93.4375 29.9611C93.8477 30.4881 94.1406 31.133 94.1406 31.8943Z" fill="#F0DD91"/>
<path d="M32.2266 58.7891C32.2266 63.6525 28.301 67.5781 23.4375 67.5781C18.574 67.5781 14.6484 63.6525 14.6484 58.7891C14.6484 53.9256 18.574 50 23.4375 50C28.301 50 32.2266 53.9256 32.2266 58.7891ZM35.1562 79.2969V82.2266C35.1562 83.8674 33.8674 85.1562 32.2266 85.1562H14.6484C13.0076 85.1562 11.7188 83.8674 11.7188 82.2266V79.9414C11.7188 74.1406 15.7031 68.6916 21.4451 67.7541C22.1486 67.6367 22.793 67.5781 23.4375 67.5781C29.8826 67.5781 35.1562 72.8518 35.1562 79.2969Z" fill="white"/>
<path d="M67.7734 61.7188C69.3915 61.7188 70.7031 60.4071 70.7031 58.7891C70.7031 57.171 69.3915 55.8594 67.7734 55.8594C66.1554 55.8594 64.8438 57.171 64.8438 58.7891C64.8438 60.4071 66.1554 61.7188 67.7734 61.7188Z" fill="white"/>
<path d="M79.4922 61.7188C81.1102 61.7188 82.4219 60.4071 82.4219 58.7891C82.4219 57.171 81.1102 55.8594 79.4922 55.8594C77.8742 55.8594 76.5625 57.171 76.5625 58.7891C76.5625 60.4071 77.8742 61.7188 79.4922 61.7188Z" fill="white"/>
<path d="M56.0547 61.7188C57.6727 61.7188 58.9844 60.4071 58.9844 58.7891C58.9844 57.171 57.6727 55.8594 56.0547 55.8594C54.4367 55.8594 53.125 57.171 53.125 58.7891C53.125 60.4071 54.4367 61.7188 56.0547 61.7188Z" fill="white"/>
<path d="M79.4922 73.4375H56.0547C54.4354 73.4375 53.125 72.1271 53.125 70.5078C53.125 68.8885 54.4354 67.5781 56.0547 67.5781H79.4922C81.1115 67.5781 82.4219 68.8885 82.4219 70.5078C82.4219 72.1271 81.1115 73.4375 79.4922 73.4375ZM82.4219 82.2266C82.4219 83.8459 81.1115 85.1562 79.4922 85.1562H56.0547C54.4354 85.1562 53.125 83.8459 53.125 82.2266C53.125 80.6072 54.4354 79.2969 56.0547 79.2969H79.4922C81.1115 79.2969 82.4219 80.6072 82.4219 82.2266Z" fill="white"/>
<path d="M76.5625 3.125C63.6131 3.125 53.125 13.6131 53.125 26.5625C53.125 39.5119 63.6131 50 76.5625 50C89.5119 50 100 39.5119 100 26.5625C100 13.6131 89.5119 3.125 76.5625 3.125Z" fill="#74DCC3"/>
<path d="M87.402 22.7537L76.5623 33.5938L75.6832 34.4725C75.1561 35.0586 74.3943 35.3516 73.6326 35.3516C72.8709 35.3516 72.1092 35.0586 71.582 34.4725L65.7227 28.6131C64.5508 27.4998 64.5508 25.6252 65.7227 24.5117C66.8359 23.3398 68.7105 23.3398 69.824 24.5117L73.6326 28.2615L76.5623 25.3318L83.3008 18.6523C84.4141 17.4805 86.2887 17.4805 87.4021 18.6523C88.574 19.7658 88.574 21.6404 87.402 22.7537Z" fill="white"/>
</svg>
