<svg width="100" height="100" viewBox="0 0 100 100" fill="none" xmlns="http://www.w3.org/2000/svg">
<circle cx="50" cy="50" r="50" fill="#B8E9F2"/>
<g clip-path="url(#clip0_1584_1836)">
<path d="M49.7632 69.9998C47.0765 69.16 44.5687 67.9545 42.2679 66.3279C38.2968 63.5209 35.7257 59.7303 34.3835 55.0818C33.6499 52.5428 33.2882 49.9389 33.2156 47.3061C33.1468 44.835 33.2226 42.36 33.1882 39.8873C33.1546 37.4928 34.8859 35.5201 37.4656 35.3896C39.3601 35.2943 41.2023 34.9186 42.9765 34.2271C44.6663 33.5686 46.1929 32.642 47.5562 31.449C48.2093 30.8779 48.8171 30.249 49.6859 29.999H50.6234C51.4781 30.2451 52.082 30.8568 52.7242 31.4217C55.032 33.4498 57.7226 34.6701 60.7492 35.1475C61.5835 35.2795 62.4281 35.342 63.2663 35.4467C65.5367 35.7295 67.096 37.435 67.1015 39.7271C67.1085 42.642 67.1609 45.5615 67.0093 48.4693C66.8085 52.3178 65.9952 56.0412 64.1351 59.4748C62.5007 62.4912 60.221 64.9076 57.364 66.7896C55.4429 68.0553 53.3765 69.0264 51.2117 69.7943C50.9929 69.8717 50.7671 69.9303 50.5452 69.9982H49.764L49.7632 69.9998ZM35.5437 44.0998C35.4773 47.267 35.6445 50.417 36.3992 53.5131C37.2663 57.0725 38.8999 60.1928 41.5757 62.7334C43.9796 65.0162 46.8413 66.5139 49.9429 67.5943C50.107 67.6514 50.3312 67.6147 50.5038 67.5537C52.2976 66.9186 54.0218 66.1311 55.6359 65.117C58.6624 63.2162 61.0031 60.6998 62.5296 57.4475C63.6585 55.042 64.2343 52.4936 64.5452 49.8717C64.9523 46.4459 64.8476 43.01 64.7538 39.5756C64.7281 38.6396 64.0726 37.9357 63.1367 37.8029C62.2742 37.6811 61.4038 37.6201 60.5421 37.4943C57.8796 37.1068 55.3945 36.2146 53.1663 34.6998C52.2234 34.0584 51.3656 33.2912 50.4867 32.5592C50.2367 32.3514 50.0593 32.3217 49.8273 32.56C49.6195 32.774 49.3835 32.9615 49.1601 33.1607C46.7773 35.292 44.0038 36.6561 40.882 37.2865C39.6874 37.5279 38.4609 37.61 37.2523 37.7865C36.182 37.9436 35.5585 38.6514 35.5476 39.7264C35.5327 41.1842 35.5437 42.642 35.5437 44.099V44.0998Z" fill="#0A93AC"/>
<path d="M60.1209 50.0185C60.0685 55.5373 55.5998 60.0037 50.1435 59.9654C44.5342 59.9255 40.1623 55.4295 40.1935 49.9623C40.2256 44.3185 44.7771 40.0115 50.1802 40.0412C55.7177 40.0716 60.1724 44.5841 60.1209 50.0185ZM57.7685 49.9873C57.7451 45.7748 54.2873 42.331 50.1295 42.3795C45.9123 42.4287 42.5451 45.8037 42.5318 49.9935C42.5193 54.1755 45.9677 57.6255 50.1552 57.6201C54.3529 57.6146 57.792 54.1662 57.7685 49.9873Z" fill="#0A93AC"/>
<path d="M48.374 51.5688C48.9154 51.0211 49.3967 50.5289 49.8834 50.0414C50.9029 49.0196 51.9209 47.9954 52.9475 46.9805C53.4904 46.4438 54.199 46.4258 54.6811 46.9157C55.1451 47.3875 55.1271 48.1071 54.6139 48.6235C52.8436 50.4032 51.0693 52.1789 49.2896 53.95C48.7217 54.5157 48.067 54.5172 47.4998 53.9625C46.8396 53.3172 46.1873 52.6625 45.5404 52.0039C45.0271 51.4813 45.0014 50.7704 45.4607 50.2954C45.9412 49.7985 46.6498 49.8133 47.1943 50.3493C47.5826 50.7313 47.9529 51.1321 48.374 51.5696V51.5688Z" fill="#0A93AC"/>
</g>
<defs>
<clipPath id="clip0_1584_1836">
<rect width="33.9297" height="40" fill="white" transform="translate(33.1855 30)"/>
</clipPath>
</defs>
</svg>
