<svg width="24" height="22" viewBox="0 0 24 22" fill="none" xmlns="http://www.w3.org/2000/svg">
<path d="M23.6294 6.1839C20.4565 2.6477 16.5828 0.862835 12.713 0.799988C8.95994 0.799988 6.10235 1.61281 3.54843 3.41862C2.38438 4.24401 1.35658 5.29566 0.305422 6.28864C-0.12672 6.69506 -0.0761089 7.32772 0.305422 7.72156C0.667487 8.09445 1.21253 8.08607 1.61742 7.69642C1.76925 7.54978 1.90162 7.38637 2.04956 7.23554C5.62739 3.54432 9.87094 2.17425 14.7374 3.11276C17.6339 3.67001 20.0827 5.17834 22.15 7.42827C22.3525 7.64614 22.5977 7.8682 22.8625 7.95619C23.2712 8.09026 23.6294 7.9101 23.8591 7.50369C24.1044 7.07214 24.0304 6.63221 23.6294 6.1839Z" fill="#0BB68E"/>
<path d="M12.0123 6.40029C10.2 6.38761 8.48773 6.83144 6.86347 7.66837C5.59927 8.31931 4.47109 9.18161 3.49493 10.2468C3.10687 10.6695 3.10687 11.2739 3.45892 11.667C3.81898 12.0728 4.36307 12.0982 4.79914 11.722C4.92316 11.6163 5.03117 11.4895 5.15119 11.3754C7.6916 8.95335 10.6321 7.94734 14.0206 8.67015C15.9889 9.08861 17.6532 10.1369 19.0854 11.6121C19.5695 12.1109 20.1296 12.1235 20.5336 11.6797C20.9217 11.257 20.8857 10.6314 20.4176 10.1496C18.0813 7.74445 15.2968 6.44678 12.0123 6.40029Z" fill="#0BB68E"/>
<path d="M11.9978 12C10.2434 12.0698 8.7462 12.8205 7.48317 14.1952C7.12231 14.588 7.11079 15.2077 7.41791 15.6179C7.74806 16.0587 8.27401 16.1198 8.70013 15.7576C8.82298 15.6528 8.93048 15.5263 9.04948 15.4172C10.1014 14.4658 11.2646 13.9246 12.6389 14.1821C13.6409 14.3698 14.4778 14.9284 15.2303 15.6877C15.6756 16.1372 16.2322 16.0892 16.5816 15.6223C16.9118 15.1815 16.8657 14.5618 16.4472 14.121C15.1919 12.7943 13.7177 12.0655 11.9978 12Z" fill="#0BB68E"/>
<path d="M12.0185 18.4002C11.1509 18.3881 10.4044 19.1234 10.4004 20.0002C10.3964 20.889 11.1106 21.6001 12.0064 21.6001C12.8981 21.596 13.6123 20.8769 13.6002 19.988C13.5881 19.1315 12.8739 18.4124 12.0185 18.4002Z" fill="#0BB68E"/>
</svg>
