<svg width="26" height="25" viewBox="0 0 26 25" fill="none" xmlns="http://www.w3.org/2000/svg">
<path d="M0.945322 12.2526C0.953471 5.51417 6.46443 0.0398901 13.2233 0.0561886C19.9362 0.0724872 25.4034 5.5763 25.3942 12.3086C25.3851 19.0481 19.8731 24.5234 13.1163 24.505C6.40331 24.4877 0.937172 18.9849 0.945322 12.2526ZM17.1726 9.8781H9.17509V14.6923H17.1726V9.8781ZM9.443 8.17287H16.8965C16.6042 6.47272 16.1651 4.85917 15.2942 3.39739C15.0619 3.00826 14.7747 2.63849 14.4538 2.31761C13.6042 1.46805 12.7323 1.4762 11.8725 2.32576C11.6087 2.58552 11.3673 2.87991 11.1696 3.19264C10.2141 4.71044 9.7486 6.40142 9.44198 8.17287H9.443ZM9.43689 16.3782C9.79138 18.3004 10.2702 20.1431 11.4294 21.7302C11.6464 22.0266 11.9204 22.2976 12.2148 22.5186C12.8637 23.0066 13.482 22.9984 14.135 22.5166C14.3784 22.3373 14.6097 22.1244 14.794 21.8861C16.0429 20.2694 16.5329 18.3635 16.9047 16.3782H9.43689ZM2.87467 9.85875C2.48248 11.4835 2.46822 13.0869 2.8818 14.7004H7.51264V9.85875H2.87467ZM18.829 9.85264V14.6943H23.4669C23.8601 13.0614 23.8734 11.4621 23.4537 9.85264H18.829ZM7.70822 8.17898C7.97613 7.1318 8.17578 6.11314 8.50481 5.13726C8.82875 4.17361 9.28307 3.25376 9.69665 2.27483C6.78327 3.36174 4.70011 5.29617 3.40335 8.17898H7.70822ZM9.83722 22.3363C8.64437 20.4192 8.11976 18.4196 7.76119 16.3934H3.40132C4.71131 19.2701 6.78837 21.2117 9.8362 22.3363H9.83722ZM16.6225 2.32169C17.6942 4.13898 18.2188 6.12944 18.5773 8.18509H22.9372C21.6486 5.30025 19.5614 3.36785 16.6215 2.32169H16.6225ZM18.5743 16.3721C18.2228 18.4532 17.6809 20.4294 16.5584 22.2477C18.9756 21.7536 22.6102 18.3289 22.8404 16.3721H18.5743Z" fill="#1D8D70"/>
</svg>
