<svg width="50" height="50" viewBox="0 0 50 50" fill="none" xmlns="http://www.w3.org/2000/svg">
<circle cx="25" cy="25" r="25" fill="#1DA1F2"/>
<path d="M20.1765 36C29.9878 36 35.3542 27.92 35.3542 20.913C35.3542 20.6835 35.3542 20.4551 35.3386 20.2276C36.3826 19.477 37.2838 18.5476 38 17.4829C37.0265 17.912 35.9937 18.1932 34.9362 18.3172C36.0498 17.6546 36.8833 16.6123 37.2814 15.3844C36.2343 16.0021 35.0887 16.4373 33.8941 16.6714C33.0898 15.8213 32.0261 15.2584 30.8675 15.0698C29.709 14.8812 28.5202 15.0774 27.4851 15.628C26.4501 16.1786 25.6264 17.053 25.1416 18.1159C24.6569 19.1787 24.538 20.3707 24.8034 21.5074C22.6826 21.4017 20.6079 20.8538 18.7139 19.8994C16.8199 18.945 15.149 17.6053 13.8096 15.9674C13.1275 17.1347 12.9185 18.5166 13.2254 19.8316C13.5322 21.1467 14.3317 22.296 15.4611 23.0457C14.6122 23.021 13.7817 22.7933 13.04 22.382V22.4492C13.0403 23.6734 13.4667 24.8599 14.2467 25.8072C15.0267 26.7546 16.1124 27.4046 17.3196 27.6471C16.5343 27.86 15.7103 27.8911 14.911 27.738C15.252 28.7915 15.9156 29.7128 16.8092 30.373C17.7027 31.0332 18.7815 31.3994 19.8946 31.4204C18.7886 32.2845 17.5221 32.9234 16.1674 33.3005C14.8128 33.6777 13.3966 33.7856 12 33.6182C14.4395 35.1742 17.2779 35.9997 20.1765 35.9959" fill="white"/>
</svg>
